<?xml version="1.0" encoding="UTF-8"?>
<svg version="1.1" xmlns="http://www.w3.org/2000/svg" width="1638" height="1638">
<path d="M0 0 C540.54 0 1081.08 0 1638 0 C1638 540.54 1638 1081.08 1638 1638 C1097.46 1638 556.92 1638 0 1638 C0 1097.46 0 556.92 0 0 Z " fill="#FEFEFE" transform="translate(0,0)"/>
<path d="M0 0 C11.88 0 23.76 0 36 0 C36 59.4 36 118.8 36 180 C24.78 180 13.56 180 2 180 C1.67 174.72 1.34 169.44 1 164 C-0.175625 165.7634375 -0.175625 165.7634375 -1.375 167.5625 C-7.91902919 176.18109322 -17.2866237 181.48585608 -28 183 C-39.59382048 184.01950663 -51.36655717 184.25902056 -62 179 C-62.84175781 178.59910156 -63.68351563 178.19820312 -64.55078125 177.78515625 C-79.33003961 169.8553831 -89.08873591 155.55405267 -94.2578125 139.88671875 C-99.81498963 118.27222455 -98.53900138 93.26234056 -87.625 73.51171875 C-86.18260359 71.24229614 -84.65175797 69.12145218 -83 67 C-82.12214844 65.85917969 -82.12214844 65.85917969 -81.2265625 64.6953125 C-73.62307628 55.47802513 -64.26412811 50.53906728 -53 47 C-52.01 46.67 -51.02 46.34 -50 46 C-34.26965506 44.73389907 -20.76891818 46.03581529 -8 56 C-4.535 59.465 -4.535 59.465 -1 63 C-0.67 42.21 -0.34 21.42 0 0 Z " fill="#BBBCBC" transform="translate(979,945)"/>
<path d="M0 0 C1.38699097 0.01691895 1.38699097 0.01691895 2.80200195 0.03417969 C17.55531752 0.33041535 29.39526502 3.42545072 40.625 13.3125 C41.3159375 13.89773438 42.006875 14.48296875 42.71875 15.0859375 C55.59963049 26.82735549 60.81003068 45.14010791 61.78271484 62.05517578 C62.78948388 84.70202734 59.21394679 103.04953369 44.3125 120.75 C34.5207806 130.99597442 22.11542261 136.71697383 8.046875 137.515625 C-6.62729815 137.70295487 -19.26244901 134.53931003 -30.0625 124.0625 C-33.375 120.6371493 -33.375 120.6371493 -33.375 118.3125 C-34.035 118.3125 -34.695 118.3125 -35.375 118.3125 C-35.375 138.4425 -35.375 158.5725 -35.375 179.3125 C-47.255 179.3125 -59.135 179.3125 -71.375 179.3125 C-71.375 121.2325 -71.375 63.1525 -71.375 3.3125 C-59.825 3.3125 -48.275 3.3125 -36.375 3.3125 C-35.88 10.2425 -35.88 10.2425 -35.375 17.3125 C-34.405625 16.11625 -33.43625 14.92 -32.4375 13.6875 C-23.56965967 3.60635355 -13.22278589 -0.26549356 0 0 Z " fill="#989A9C" transform="translate(811.375,781.6875)"/>
<path d="M0 0 C11.88 0 23.76 0 36 0 C36.33 20.79 36.66 41.58 37 63 C39.64 60.36 42.28 57.72 45 55 C57.84708536 46.29371075 71.18742002 44.23569401 86.34765625 46.5 C100.20632092 49.64725804 111.45502835 57.06152373 119.6328125 68.796875 C131.81551495 88.42842981 134.73509706 112.25617788 129.57080078 134.80786133 C125.45722325 150.60589927 119.47070274 166.13272214 105.03173828 175.24169922 C88.3327333 184.76336966 71.30876885 184.63797209 53 180 C45.93966634 177.39310757 38.42690988 171.85381975 35 165 C34.67 169.95 34.34 174.9 34 180 C22.78 180 11.56 180 0 180 C0 120.6 0 61.2 0 0 Z " fill="#111921" transform="translate(484,526)"/>
<path d="M0 0 C4.85712626 3.38611088 9.33484096 7.78312188 12.67578125 12.6796875 C12.67578125 13.6696875 12.67578125 14.6596875 12.67578125 15.6796875 C13.33578125 15.6796875 13.99578125 15.6796875 14.67578125 15.6796875 C14.90265625 15.1228125 15.12953125 14.5659375 15.36328125 13.9921875 C17.06542893 10.9931654 19.15255887 9.03469505 21.67578125 6.6796875 C22.20429687 6.18082031 22.7328125 5.68195312 23.27734375 5.16796875 C34.36404578 -4.88093697 46.77625551 -6.15892011 61.20214844 -5.515625 C73.11172805 -4.5752713 82.67906013 0.32803921 90.92578125 8.8046875 C98.77697265 18.05060152 100.83624626 28.51402619 100.78930664 40.2434082 C100.78945267 41.19998825 100.78959869 42.1565683 100.78974915 43.14213562 C100.78905378 46.29660325 100.78127895 49.45101146 100.7734375 52.60546875 C100.77157199 54.79550647 100.77014871 56.9855446 100.76914978 59.17558289 C100.76533512 64.93442948 100.75551378 70.69325079 100.7444458 76.4520874 C100.73420911 82.330685 100.72964732 88.20928668 100.72460938 94.08789062 C100.71389058 105.61850247 100.69630226 117.14908892 100.67578125 128.6796875 C88.79578125 128.6796875 76.91578125 128.6796875 64.67578125 128.6796875 C64.67167236 126.00568848 64.66756348 123.33168945 64.66333008 120.57666016 C64.64608895 111.71567922 64.60151439 102.85498502 64.54369068 93.99418068 C64.50948284 88.62480775 64.48432033 83.2557175 64.48022461 77.88623047 C64.4759284 72.69882179 64.44735582 67.5120501 64.40234947 62.32484055 C64.38941674 60.35147189 64.38505172 58.37802685 64.38962746 56.40462112 C64.86702525 41.62918062 64.86702525 41.62918062 58.67578125 28.6796875 C52.72826734 24.1636293 46.91305976 22.90466624 39.50390625 23.265625 C32.68205988 24.26440361 28.39992768 27.43232672 23.90234375 32.5078125 C20.59570731 38.36287576 20.37519622 44.92703364 20.35693359 51.48242188 C20.34688797 52.32239716 20.33684235 53.16237244 20.32649231 54.02780151 C20.29585038 56.77634052 20.27867846 59.52478299 20.26171875 62.2734375 C20.24299179 64.19015319 20.22341726 66.10686078 20.20303345 68.02355957 C20.15186762 73.04743654 20.11215896 78.07134019 20.07489014 83.09533691 C20.03475267 88.2302909 19.98370491 93.36513538 19.93359375 98.5 C19.83701865 108.55982628 19.75356467 118.61969836 19.67578125 128.6796875 C7.46578125 128.6796875 -4.74421875 128.6796875 -17.32421875 128.6796875 C-17.34403809 126.0610376 -17.36385742 123.4423877 -17.38427734 120.74438477 C-17.45132611 112.07106218 -17.52896332 103.39785733 -17.61174583 94.72467136 C-17.66159078 89.46857379 -17.70792157 84.21249517 -17.74609375 78.95629883 C-17.78309598 73.87929774 -17.82949581 68.80245993 -17.88228226 63.72559929 C-17.90074707 61.79326187 -17.9158839 59.86088957 -17.92756271 57.92849922 C-17.94456129 55.21201146 -17.97362781 52.49589121 -18.00537109 49.77954102 C-18.00753128 48.98903351 -18.00969147 48.198526 -18.01191711 47.38406372 C-18.1123135 40.61376052 -18.80070054 33.60641856 -22.32421875 27.6796875 C-24.65276338 26.48130541 -24.65276338 26.48130541 -27.32421875 25.6796875 C-28.09765625 25.34066406 -28.87109375 25.00164063 -29.66796875 24.65234375 C-36.01878227 22.32682527 -42.52250497 22.93660367 -48.63671875 25.6796875 C-54.37596621 28.90060062 -57.91895059 33.20900157 -60.3765564 39.27871704 C-61.50035029 43.31178833 -61.63160751 47.10404372 -61.64306641 51.25537109 C-61.65813484 52.51489594 -61.65813484 52.51489594 -61.67350769 53.79986572 C-61.70425539 56.55927889 -61.72135135 59.3185954 -61.73828125 62.078125 C-61.75699967 63.99769925 -61.77657359 65.91726532 -61.79696655 67.83682251 C-61.84822252 72.87716855 -61.88788323 77.91754124 -61.92510986 82.95800781 C-61.96519049 88.10618652 -62.01626431 93.25425495 -62.06640625 98.40234375 C-62.16308823 108.49472179 -62.24650119 118.58714559 -62.32421875 128.6796875 C-74.20421875 128.6796875 -86.08421875 128.6796875 -98.32421875 128.6796875 C-98.32421875 85.7796875 -98.32421875 42.8796875 -98.32421875 -1.3203125 C-87.10421875 -1.3203125 -75.88421875 -1.3203125 -64.32421875 -1.3203125 C-63.82921875 6.1046875 -63.82921875 6.1046875 -63.32421875 13.6796875 C-61.93203125 11.91625 -61.93203125 11.91625 -60.51171875 10.1171875 C-45.71943607 -6.69898899 -19.57285307 -11.11869636 0 0 Z " fill="#BBBCBC" transform="translate(490.32421875,996.3203125)"/>
<path d="M0 0 C1.58385498 0.01752319 1.58385498 0.01752319 3.19970703 0.03540039 C15.65246192 0.38722187 23.96995555 3.60641155 33.1640625 12.28125 C35.20072949 14.5774151 36.70537646 16.88146125 38.1875 19.5625 C38.8475 18.881875 39.5075 18.20125 40.1875 17.5 C41.18405361 16.51732596 42.18446553 15.53855799 43.1875 14.5625 C43.74566406 14.00820313 44.30382812 13.45390625 44.87890625 12.8828125 C56.95263612 1.54006001 69.99083031 -0.02684612 85.859375 0.21875 C96.18526252 0.65846132 105.63764996 4.41931636 113.1875 11.5625 C113.72761719 12.06265625 114.26773438 12.5628125 114.82421875 13.078125 C123.84082706 22.4354112 125.35210744 34.77305217 125.30102539 47.16967773 C125.30117142 48.10704269 125.30131744 49.04440765 125.3014679 50.01017761 C125.30077477 53.08884039 125.29301059 56.16744163 125.28515625 59.24609375 C125.28328994 61.38843248 125.28186704 63.53077165 125.28086853 65.67311096 C125.27706016 71.29712107 125.26724426 76.92110513 125.25616455 82.54510498 C125.24591426 88.28983203 125.24136317 94.03456331 125.23632812 99.77929688 C125.22562044 111.04037783 125.20803729 122.30143267 125.1875 133.5625 C113.3075 133.5625 101.4275 133.5625 89.1875 133.5625 C89.1781543 130.87802734 89.16880859 128.19355469 89.15917969 125.42773438 C89.12536187 116.54280712 89.06978609 107.65811095 89.00359726 98.77336884 C88.96414456 93.38828846 88.93194514 88.00337107 88.91650391 82.61816406 C88.90132296 77.41785957 88.86685143 72.21800323 88.81919098 67.01789856 C88.80439209 65.03729657 88.79645984 63.0566306 88.79561615 61.07597351 C88.79324027 58.29430771 88.76611072 55.51387417 88.73339844 52.73242188 C88.7384288 51.91961761 88.74345917 51.10681335 88.74864197 50.26937866 C88.62540686 43.46428504 86.65107657 38.16294193 81.9375 33.1875 C74.87201818 29.01244256 66.92118352 28.68954171 59 30.25 C54.9285609 31.41326831 52.797944 33.15442034 50.1875 36.5625 C48.68268616 39.50095406 47.41493114 42.49993896 46.1875 45.5625 C45.6925 46.5525 45.6925 46.5525 45.1875 47.5625 C45.06491736 50.30778831 45.00178213 53.02936032 44.98217773 55.77587891 C44.97227814 56.6247316 44.96237854 57.47358429 44.95217896 58.34815979 C44.92052083 61.16176538 44.89578951 63.97538788 44.87109375 66.7890625 C44.85052794 68.73677008 44.82953157 70.68447316 44.80812073 72.63217163 C44.75286148 77.7646521 44.70346921 82.89717311 44.65527344 88.02972412 C44.60508652 93.26464455 44.54938581 98.49950594 44.49414062 103.734375 C44.38651192 114.01036816 44.28558678 124.28641132 44.1875 134.5625 C32.3075 134.5625 20.4275 134.5625 8.1875 134.5625 C8.157771 130.73325928 8.157771 130.73325928 8.12744141 126.82666016 C8.06034845 118.36488666 7.98271221 109.90323312 7.89997292 101.44159889 C7.8501592 96.31444598 7.80382847 91.1873122 7.765625 86.06005859 C7.7285829 81.10624435 7.68217298 76.15259616 7.62943649 71.19892502 C7.61099264 69.31486314 7.59584831 67.43076581 7.58415604 65.54664993 C8.30017933 49.57282177 8.30017933 49.57282177 2.9375 35.125 C-3.23045733 29.37758521 -8.93527638 28.91768716 -17.1015625 29.078125 C-23.80697691 29.95335804 -27.55371542 33.30371542 -32.1875 37.9375 C-36.11026259 44.27427034 -37.25854226 49.97681186 -37.24487305 57.2734375 C-37.2550647 58.10365921 -37.26525635 58.93388092 -37.27575684 59.78926086 C-37.30570369 62.50541085 -37.31512452 65.22120714 -37.32421875 67.9375 C-37.34107904 69.83179886 -37.35923109 71.72608662 -37.37861633 73.62036133 C-37.42597582 78.58506808 -37.45587593 83.54972982 -37.48205566 88.5145874 C-37.51193228 93.58924239 -37.55843814 98.66374255 -37.60351562 103.73828125 C-37.68938893 113.679624 -37.75526653 123.62095107 -37.8125 133.5625 C-49.6925 133.5625 -61.5725 133.5625 -73.8125 133.5625 C-73.8125 90.6625 -73.8125 47.7625 -73.8125 3.5625 C-62.5925 3.5625 -51.3725 3.5625 -39.8125 3.5625 C-39.3175 11.4825 -39.3175 11.4825 -38.8125 19.5625 C-37.86375 18.386875 -36.915 17.21125 -35.9375 16 C-26.24712622 4.98378031 -14.55217084 -0.21485647 0 0 Z " fill="#97999B" transform="translate(595.8125,781.4375)"/>
<path d="M0 0 C0.73992187 0.2165625 1.47984375 0.433125 2.2421875 0.65625 C18.49872673 6.14038372 29.64158572 16.84737925 37.75 31.75 C46.19303473 50.21019459 47.3740416 72.62614524 40.54833984 91.82519531 C39.74369039 93.90613763 38.89132633 95.95488376 38 98 C37.54367187 99.0621875 37.08734375 100.124375 36.6171875 101.21875 C29.2638329 116.17757422 16.4853802 125.69809535 1 131 C-7.45789386 133.86070747 -15.34713003 134.54600816 -24.25 134.5 C-25.53253662 134.49427979 -26.81507324 134.48855957 -28.13647461 134.48266602 C-44.32551574 134.17729001 -59.22785757 128.92729888 -71.35546875 117.7734375 C-84.91755072 103.14829447 -90.55756902 86.79434608 -90.39111328 67.19311523 C-90.37499911 64.93737571 -90.39105479 62.68342051 -90.41015625 60.42773438 C-90.42251306 52.54842791 -90.00717805 45.38834048 -87 38 C-86.525625 36.80632813 -86.05125 35.61265625 -85.5625 34.3828125 C-77.48111811 17.53313125 -64.16850505 5.57226361 -46.4375 -0.6875 C-32.20482075 -5.50347275 -14.21202571 -4.1822855 0 0 Z " fill="#111921" transform="translate(423,575)"/>
<path d="M0 0 C1.21558594 -0.00773438 2.43117188 -0.01546875 3.68359375 -0.0234375 C21.91422359 0.01589503 37.13819938 5.28429595 50.4375 18.125 C66.4289201 34.92611226 68.92242954 53.54157915 68.5 75.875 C68.19597044 84.4920665 66.76246817 91.41615797 63.125 99.25 C62.58230469 100.42433594 62.03960937 101.59867188 61.48046875 102.80859375 C53.54557656 118.58881952 41.36453445 127.88808197 25.125 134.25 C6.66808977 140.21182498 -14.73083923 138.66736948 -32.25 130.5625 C-48.29516593 121.77062826 -59.11923658 107.69411948 -64.51953125 90.26953125 C-66.2906862 83.49965627 -66.31578232 76.89946184 -66.25 69.9375 C-66.26160156 68.72126953 -66.27320313 67.50503906 -66.28515625 66.25195312 C-66.22920613 48.6929401 -61.69460898 31.03578415 -48.875 18.25 C-48.215 18.25 -47.555 18.25 -46.875 18.25 C-46.875 17.59 -46.875 16.93 -46.875 16.25 C-44.99092035 14.70323139 -43.13077614 13.31123818 -41.125 11.9375 C-40.53952393 11.53523193 -39.95404785 11.13296387 -39.35083008 10.71850586 C-26.89196811 2.41092262 -14.74052164 -0.09319613 0 0 Z " fill="#97999B" transform="translate(435.875,781.75)"/>
<path d="M0 0 C12.54 0 25.08 0 38 0 C41.36908932 10.10726795 41.36908932 10.10726795 42.54296875 14.58203125 C42.94044312 16.0817749 42.94044312 16.0817749 43.34594727 17.61181641 C43.62365967 18.66804199 43.90137207 19.72426758 44.1875 20.8125 C46.70270352 30.28365442 49.33494019 39.71292414 52.0625 49.125 C55.69078048 61.67510887 58.93967631 74.30036185 62 87 C62.28198242 85.83654053 62.56396484 84.67308105 62.85449219 83.47436523 C63.91885767 79.08478761 64.98548452 74.69576191 66.05273438 70.30688477 C66.51101679 68.42096279 66.96871656 66.53489911 67.42578125 64.64868164 C69.87652177 54.5366898 72.38264483 44.45156288 75.09765625 34.40698242 C76.8303075 27.8650051 78.34518641 21.27070323 79.88671875 14.68164062 C80.13292969 13.64072266 80.37914062 12.59980469 80.6328125 11.52734375 C80.84824707 10.60687256 81.06368164 9.68640137 81.28564453 8.73803711 C82.0556102 5.7868529 83.03551385 2.89345845 84 0 C95.55 0 107.1 0 119 0 C122.37455783 11.24852609 122.37455783 11.24852609 123.76171875 16.83569336 C124.22735229 18.70329567 124.22735229 18.70329567 124.70239258 20.60862732 C125.0307749 21.9356962 125.3591437 23.26276843 125.6875 24.58984375 C126.03450539 25.98415599 126.38175965 27.37840632 126.72924805 28.77259827 C127.63755995 32.41904525 128.54324066 36.06613986 129.44812012 39.71343994 C130.89516457 45.54498748 132.34541786 51.3757353 133.79727173 57.20608711 C134.29854584 59.22124698 134.79817075 61.23681023 135.29760742 63.25242615 C137.10705321 70.52827788 138.98627103 77.77789457 141 85 C145.4643827 72.46980645 145.4643827 72.46980645 148.48046875 59.5456543 C149.04973387 56.75630872 149.86092442 54.13162804 150.734375 51.421875 C153.50403394 42.54986305 155.79538945 33.55810258 158.125 24.5625 C158.78943448 22.00068227 159.4547484 19.43910647 160.12252808 16.87815857 C160.53414984 15.29930626 160.94387747 13.71995843 161.35134888 12.14002991 C161.53849457 11.42165451 161.72564026 10.70327911 161.91845703 9.96313477 C162.16017136 9.02933739 162.16017136 9.02933739 162.4067688 8.07667542 C163.18344166 5.35784096 164.10583662 2.68249015 165 0 C177.21 0 189.42 0 202 0 C200.74111666 5.66497501 199.56477313 10.61889136 197.6875 16 C195.8555126 21.33889601 194.17988503 26.69917223 192.625 32.125 C190.74949166 38.64301212 188.67268868 45.07520742 186.5 51.5 C184.39048682 57.73855764 182.37009984 63.97975228 180.5625 70.3125 C178.5724959 77.27751434 176.31607548 84.13697856 174 91 C170.75992732 100.60617353 167.78053393 110.25227268 165 120 C164.42094766 122.00124365 163.83830368 124.00145639 163.25 126 C163.02828125 126.763125 162.8065625 127.52625 162.578125 128.3125 C162 130 162 130 161 131 C158.26105915 131.08858646 155.5474673 131.11523479 152.80859375 131.09765625 C151.98875504 131.0962413 151.16891632 131.09482635 150.32423401 131.09336853 C147.69528618 131.08775289 145.06642227 131.07519779 142.4375 131.0625 C140.65950643 131.05748701 138.88151154 131.05292376 137.10351562 131.04882812 C132.73564455 131.03777839 128.36783652 131.02050331 124 131 C123.65136719 129.67325846 123.30273438 128.34651693 122.95410156 127.01977539 C122.74789185 126.23506866 122.54168213 125.45036194 122.32922363 124.64187622 C121.90912927 123.0431051 121.48918641 121.44429417 121.06933594 119.84545898 C119.59130907 114.22513228 118.09690626 108.60927346 116.59796143 102.99449158 C114.3609585 94.61121539 112.14534102 86.22227856 109.92724609 77.83398438 C109.54659066 76.39458021 109.165813 74.95520837 108.78491211 73.51586914 C108.4100972 72.09855479 108.03590205 70.68107638 107.66235352 69.26342773 C106.73518276 65.75000317 105.79464278 62.24110278 104.828125 58.73828125 C104.54829773 57.71565186 104.54829773 57.71565186 104.26281738 56.67236328 C103.75104884 54.80533242 103.23409662 52.93972465 102.71679688 51.07421875 C102 48 102 48 102 44 C101.34 44 100.68 44 100 44 C99.9589917 44.60513428 99.9179834 45.21026855 99.87573242 45.83374023 C99.35624007 52.17813979 98.09951077 57.9659395 96.3125 64.0625 C93.61036846 73.58032014 91.23172125 83.14753571 89.00512695 92.78735352 C88.77140381 93.78694092 88.53768066 94.78652832 88.296875 95.81640625 C88.09416992 96.69756104 87.89146484 97.57871582 87.68261719 98.48657227 C86.97506976 101.09179428 86.00879995 103.4984898 85 106 C84.31255262 108.99530642 83.6513325 111.99663349 83 115 C81.68 120.28 80.36 125.56 79 131 C66.46 131 53.92 131 41 131 C40.01 127.37 39.02 123.74 38 120 C36.88392366 116.96486066 36.88392366 116.96486066 35.72802734 113.94482422 C34.39320628 110.37903461 33.37663684 106.71623505 32.3125 103.0625 C29.05414687 92.0456207 25.54828699 81.11318958 22.0234375 70.17919922 C20.38208964 65.08052749 18.75452557 59.97745963 17.125 54.875 C14.89257305 47.88529084 12.64567758 40.90050995 10.37890625 33.921875 C9.70292278 31.83761802 9.0270851 29.75331381 8.35125732 27.66900635 C7.91589255 26.32832306 7.47960419 24.98793927 7.04229736 23.64788818 C6.4256301 21.75819782 5.8123871 19.86739109 5.19921875 17.9765625 C4.84690186 16.89455566 4.49458496 15.81254883 4.1315918 14.69775391 C2.64237783 9.83138181 1.33904105 4.90981718 0 0 Z " fill="#121A22" transform="translate(812,575)"/>
<path d="M0 0 C14.07815362 12.74072903 20.63985561 27.37825547 22.34375 46.12109375 C9.80375 46.12109375 -2.73625 46.12109375 -15.65625 46.12109375 C-16.97625 42.49109375 -18.29625 38.86109375 -19.65625 35.12109375 C-24.12576698 28.37299948 -28.59647846 24.03095162 -35.65625 20.12109375 C-36.20128174 19.77908936 -36.74631348 19.43708496 -37.30786133 19.0847168 C-43.25061841 15.64675183 -48.70571139 15.4626716 -55.46875 15.55859375 C-56.53738281 15.56810059 -57.60601562 15.57760742 -58.70703125 15.58740234 C-66.30338618 15.78871506 -72.31511696 16.68230062 -78.65625 21.12109375 C-79.37296875 21.56710937 -80.0896875 22.013125 -80.828125 22.47265625 C-91.93854224 29.94921522 -98.5786568 42.52238104 -101.35546875 55.3515625 C-104.92276444 77.33723593 -103.22840755 100.58607156 -90.703125 119.5078125 C-84.28167088 127.70619571 -75.01172845 133.58641758 -64.65625 135.12109375 C-61.55114098 135.31019049 -58.4540396 135.35173008 -55.34375 135.37109375 C-54.52712891 135.39171875 -53.71050781 135.41234375 -52.86914062 135.43359375 C-42.69208372 135.49846742 -34.28126708 131.43430279 -26.89453125 124.45703125 C-19.27849554 116.05445281 -17.66436065 107.40150867 -14.65625 96.12109375 C-1.78625 96.12109375 11.08375 96.12109375 24.34375 96.12109375 C20.76877621 119.35842338 13.89824528 140.03245474 -5.6027832 154.64208984 C-10.98909913 158.51049307 -16.53118041 161.56011552 -22.65625 164.12109375 C-23.69523437 164.60707031 -24.73421875 165.09304688 -25.8046875 165.59375 C-35.46706525 169.42244052 -45.08016516 169.60090635 -55.34375 169.62109375 C-56.40352554 169.62783112 -56.40352554 169.62783112 -57.48471069 169.63470459 C-79.75895139 169.69216151 -99.02795386 162.87997844 -115.3828125 147.3984375 C-132.48326652 130.26860126 -143.00969405 108.64834458 -143.20747375 84.25964355 C-143.20456367 82.59331615 -143.19459789 80.9269868 -143.17773438 79.26074219 C-143.15632497 76.75486887 -143.17763578 74.25187987 -143.203125 71.74609375 C-143.22944334 57.44312912 -141.05692519 43.79771708 -134.90625 30.74609375 C-134.56408447 29.9998877 -134.22191895 29.25368164 -133.86938477 28.48486328 C-130.85183531 22.11884736 -127.15618765 16.54668048 -122.65625 11.12109375 C-122.11613281 10.41984375 -121.57601562 9.71859375 -121.01953125 8.99609375 C-108.66817245 -6.31600239 -88.60692954 -16.13872301 -69.20703125 -18.49609375 C-44.1136706 -20.89389179 -19.7899955 -16.56472725 0 0 Z " fill="#97999B" transform="translate(332.65625,749.87890625)"/>
<path d="M0 0 C5.85164826 5.25800279 10.02496729 12.51068072 10.49879456 20.45625305 C10.51863695 22.03231529 10.51749359 23.60874429 10.49829102 25.18481445 C10.50380981 26.0544281 10.50932861 26.92404175 10.51501465 27.82000732 C10.52427966 29.6925208 10.52448571 31.56509732 10.51642036 33.43761635 C10.50369878 36.41178576 10.51516518 39.3850394 10.53245544 42.35917664 C10.55908196 47.60706043 10.56475432 52.8547171 10.56335449 58.10266113 C10.56112178 66.48969021 10.57552256 74.87643712 10.61894035 83.26335716 C10.62869323 86.17469354 10.62010499 89.08557617 10.61024475 91.99690247 C10.62170668 100.60134497 10.79372543 108.50465087 13.35679626 116.81193542 C14 119 14 119 14 122 C2.12 122 -9.76 122 -22 122 C-24.35333796 117.29332409 -24.17102038 115.1306114 -24 110 C-24.46148438 110.37511719 -24.92296875 110.75023437 -25.3984375 111.13671875 C-30.62581523 115.2380408 -35.9024088 118.36534716 -42 121 C-42.85078125 121.39574219 -43.7015625 121.79148437 -44.578125 122.19921875 C-52.44435732 125.26189117 -60.19498417 125.45069096 -68.5625 125.5625 C-69.6980835 125.58932861 -70.83366699 125.61615723 -72.00366211 125.64379883 C-83.21001435 125.59435308 -93.83621236 121.98249976 -101.9921875 114.06640625 C-110.16777015 105.42664217 -112.68900143 97.88666352 -112.5625 86.0625 C-112.59827148 84.53206055 -112.59827148 84.53206055 -112.63476562 82.97070312 C-112.61773705 74.07611316 -109.76222085 66.1181899 -103.68359375 59.43359375 C-91.13410895 48.74760553 -76.55505949 46.78131994 -60.8269043 45.14355469 C-54.18281899 44.43252688 -47.69364535 43.53532187 -41.1875 42 C-40.51944336 41.84595703 -39.85138672 41.69191406 -39.16308594 41.53320312 C-34.5336071 40.3679766 -30.22867024 39.04778373 -27.6875 34.8125 C-26.42377226 29.6427047 -26.39190194 25.61145987 -28.25 20.6875 C-31.61380003 15.52166424 -35.10594154 14.45093778 -41 13 C-50.61847205 12.21461045 -59.2423984 11.96638125 -66.875 18.4375 C-70.890638 23.279887 -71.04322203 25.30255421 -72 32 C-84.21 32 -96.42 32 -109 32 C-107.6690725 18.69072503 -104.39889154 8.93950967 -93.796875 0.1796875 C-88.85547627 -3.25855847 -83.57299461 -5.7626664 -78 -8 C-77.20980469 -8.34289062 -76.41960938 -8.68578125 -75.60546875 -9.0390625 C-53.57051188 -17.16589817 -18.66674778 -14.16909044 0 0 Z " fill="#121A22" transform="translate(797,584)"/>
<path d="M0 0 C7.44128985 7.06264014 11.08347518 14.35045254 11.4548521 24.66306114 C11.51616397 28.20826226 11.53196568 31.75133559 11.51642036 35.29701996 C11.50367232 38.2256156 11.51518948 41.15328474 11.53245544 44.08184814 C11.55906057 49.25168411 11.56475528 54.42128952 11.56335449 59.59118652 C11.56112062 67.84916449 11.57561505 76.10685561 11.61894035 84.36472321 C11.62866575 87.22611567 11.62011912 90.08704341 11.61024475 92.94842529 C11.61639913 94.73482552 11.62331422 96.52122334 11.63110352 98.30761719 C11.62338425 99.08313934 11.61566498 99.8586615 11.60771179 100.65768433 C11.67551721 108.30433685 13.30348305 114.0829209 15 122 C3.12 122 -8.76 122 -21 122 C-22.32 118.7 -23.64 115.4 -25 112 C-26.423125 113.051875 -27.84625 114.10375 -29.3125 115.1875 C-44.45710986 125.69513662 -62.12246159 128.15642761 -80.20703125 125.53515625 C-91.64871739 122.76885445 -101.01284299 117.0610022 -107.2421875 106.9921875 C-112.76662838 96.70946907 -113.7895756 84.40526582 -110.8125 73.1171875 C-107.23006963 63.78220066 -99.98155563 56.79120635 -91.1875 52.3125 C-78.40101246 46.97020041 -64.11142497 45.5482229 -50.44848633 44.12646484 C-37.61298672 42.73259653 -37.61298672 42.73259653 -27 36 C-25.64301742 31.92905226 -25.47612769 28.25646256 -26 24 C-28.48072467 19.03855067 -31.38812887 16.2180549 -36.66796875 14.4375 C-40.04199482 13.80451688 -43.39254628 13.81565785 -46.8125 13.8125 C-47.49892578 13.80025391 -48.18535156 13.78800781 -48.89257812 13.77539062 C-54.91220898 13.75830558 -59.96639312 14.76388601 -65.1875 17.9375 C-69.08269097 21.78553152 -69.08269097 21.78553152 -72 32 C-83.55 32 -95.1 32 -107 32 C-107 19.66514309 -103.69207748 11.92283878 -95.1875 3.125 C-73.41791083 -17.24009955 -23.14753147 -19.28960956 0 0 Z " fill="#98999B" transform="translate(994,793)"/>
<path d="M0 0 C1.28390625 -0.00257813 2.5678125 -0.00515625 3.890625 -0.0078125 C20.30737442 0.1603919 32.65831623 5.93886598 44.57421875 17.265625 C61.07511406 34.21088912 63.75 54.52534952 63.75 77.5 C32.73 77.5 1.71 77.5 -30.25 77.5 C-28.38596796 88.68419222 -26.53877554 98.27006245 -17.14453125 105.3515625 C-9.74104788 109.83944727 -1.75454733 110.53998465 6.75 109.5 C13.99274758 107.54228291 20.53337431 104.98414495 25.75 99.5 C26.31235352 98.4692334 26.87470703 97.4384668 27.45410156 96.37646484 C29.75 93.5 29.75 93.5 33.04980469 92.81884766 C34.32758789 92.85026855 35.60537109 92.88168945 36.921875 92.9140625 C37.6042926 92.92255219 38.28671021 92.93104187 38.98980713 92.93978882 C41.1615038 92.97327943 43.32943383 93.04852758 45.5 93.125 C46.97520663 93.15510626 48.4504717 93.18248095 49.92578125 93.20703125 C53.53507044 93.27304915 57.14216742 93.37653083 60.75 93.5 C56.45160635 109.23344816 48.58298615 120.69554031 34.75 129.5 C17.33968706 138.76527378 -3.71728375 140.44881762 -22.60546875 134.74609375 C-39.10734262 129.10397396 -51.01256286 118.29703895 -59.375 103.0625 C-68.40563775 84.02686621 -69.2760301 61.31253208 -62.25 41.5 C-55.49181382 24.62452919 -42.8029872 11.51208035 -26.20483398 4.14916992 C-17.23052231 0.66657178 -9.65276948 -0.21581395 0 0 Z " fill="#97999B" transform="translate(1281.25,781.5)"/>
<path d="M0 0 C13.89804022 10.43337297 22.74115542 25.2678679 26.47265625 42.13671875 C27.60021618 50.22021174 27 59.14526523 27 67 C-4.02 67 -35.04 67 -67 67 C-64.46574609 81.34209906 -64.46574609 81.34209906 -57 92 C-56.21625 92.763125 -55.4325 93.52625 -54.625 94.3125 C-45.90478339 99.91835353 -36.46728943 100.31969769 -26.34765625 98.53125 C-17.1085468 95.80335828 -11.75990326 91.3298307 -7 83 C3.56 83 14.12 83 25 83 C19.82299529 98.53101413 12.16849058 111.76046608 -2.61328125 119.81640625 C-3.40089844 120.20699219 -4.18851563 120.59757812 -5 121 C-5.96679688 121.51046875 -6.93359375 122.0209375 -7.9296875 122.546875 C-22.97466882 129.66740051 -45.16488772 129.78979119 -60.72900391 124.25610352 C-78.34286793 117.30745054 -89.87006513 105.80832628 -98.015625 88.890625 C-105.044238 72.21489611 -104.83123201 48.05141095 -98.46875 31.296875 C-97.9840625 30.20890625 -97.499375 29.1209375 -97 28 C-96.5771875 27.01515625 -96.154375 26.0303125 -95.71875 25.015625 C-88.76138723 10.69640163 -75.02999514 -1.77985068 -60 -7 C-59.19046875 -7.29777344 -58.3809375 -7.59554687 -57.546875 -7.90234375 C-38.50334925 -13.80583673 -16.5373954 -10.81453083 0 0 Z " fill="#BBBCBC" transform="translate(846,1001)"/>
<path d="M0 0 C1.19536377 0.00950684 2.39072754 0.01901367 3.62231445 0.02880859 C12.23925858 0.23252999 19.18107249 1.0443 26.6875 5.5625 C27.45578125 6.00851562 28.2240625 6.45453125 29.015625 6.9140625 C37.15462039 12.309915 42.03614168 21.33033435 44.6875 30.5625 C45.58498248 36.48021412 45.82603249 42.2127125 45.80102539 48.19140625 C45.80117142 49.11916367 45.80131744 50.04692108 45.8014679 51.00279236 C45.80077593 54.04355273 45.7930173 57.08425044 45.78515625 60.125 C45.78328952 62.24348924 45.78186682 64.36197892 45.78086853 66.48046875 C45.77706341 72.03706061 45.76725035 77.59362605 45.75616455 83.15020752 C45.74590721 88.82799929 45.74136167 94.50579537 45.73632812 100.18359375 C45.72562618 111.30990927 45.70804573 122.4361983 45.6875 133.5625 C34.1375 133.5625 22.5875 133.5625 10.6875 133.5625 C10.65011719 127.86613281 10.61273437 122.16976562 10.57421875 116.30078125 C10.54390404 112.66859089 10.51273335 109.03644747 10.47851562 105.40429688 C10.42441369 99.652939 10.37329623 93.90167394 10.34106445 88.15014648 C10.314847 83.50747542 10.27431771 78.86512032 10.22431374 74.22264671 C10.20776867 72.46109162 10.19617814 70.69948204 10.18988609 68.93786049 C10.57884635 50.1426358 10.57884635 50.1426358 2.48046875 33.9296875 C-4.47233121 28.62798819 -11.92584254 28.59754643 -20.28466797 29.26513672 C-25.16489563 29.9807781 -28.82242488 32.16655554 -32.3125 35.5625 C-34.20355215 38.11061265 -35.21791401 40.6053946 -36.3125 43.5625 C-36.82917236 44.75029053 -37.34584473 45.93808105 -37.87817383 47.16186523 C-40.39826152 54.82675378 -39.7960521 63.17669843 -39.82421875 71.16015625 C-39.84108469 72.96334542 -39.85923748 74.76652297 -39.87861633 76.56968689 C-39.92591464 81.28942228 -39.95585404 86.00911054 -39.98205566 90.72900391 C-40.01723236 96.40609207 -40.07418722 102.08299934 -40.12744904 107.7599411 C-40.20572621 116.36077041 -40.25651058 124.96136676 -40.3125 133.5625 C-52.1925 133.5625 -64.0725 133.5625 -76.3125 133.5625 C-76.3125 90.6625 -76.3125 47.7625 -76.3125 3.5625 C-65.0925 3.5625 -53.8725 3.5625 -42.3125 3.5625 C-41.8175 11.9775 -41.8175 11.9775 -41.3125 20.5625 C-40.013125 19.03625 -38.71375 17.51 -37.375 15.9375 C-26.9277911 4.38027515 -15.46870698 -0.19686069 0 0 Z " fill="#97999B" transform="translate(1100.3125,781.4375)"/>
<path d="M0 0 C13.2 0 26.4 0 40 0 C40 48.18 40 96.36 40 146 C69.04 146 98.08 146 128 146 C128 157.22 128 168.44 128 180 C85.76 180 43.52 180 0 180 C0 120.6 0 61.2 0 0 Z " fill="#BCBCBC" transform="translate(197,945)"/>
<path d="M0 0 C13.2 0 26.4 0 40 0 C40 48.18 40 96.36 40 146 C69.04 146 98.08 146 128 146 C128 157.22 128 168.44 128 180 C85.76 180 43.52 180 0 180 C0 120.6 0 61.2 0 0 Z " fill="#121A22" transform="translate(197,526)"/>
<path d="M0 0 C2.26872729 0.02907685 4.53511862 0.02053034 6.80395508 0.00756836 C22.9251309 0.02892323 37.84368685 2.93139827 50.1418457 14.15405273 C57.40644237 22.01890209 60.7043457 30.97293402 60.7043457 41.46655273 C49.4843457 41.46655273 38.2643457 41.46655273 26.7043457 41.46655273 C25.7143457 38.49655273 24.7243457 35.52655273 23.7043457 32.46655273 C19.15014046 27.81334303 15.26526668 25.63982898 8.77856445 25.20092773 C7.31632511 25.19565365 5.85401313 25.20112089 4.3918457 25.21655273 C3.67061523 25.20881836 2.94938477 25.20108398 2.20629883 25.19311523 C-3.86984216 25.21491305 -10.11682666 25.50560786 -14.7956543 29.71655273 C-16.61812569 33.05775029 -16.90878622 34.71111968 -16.2956543 38.46655273 C-13.55462582 44.17702872 -10.00563586 46.33367855 -4.2956543 48.46655273 C1.74494785 50.40785238 7.87664594 51.74937183 14.1027832 52.93530273 C18.05057959 53.74145935 21.94138622 54.75258357 25.84106445 55.76342773 C28.25424146 56.35602236 30.63288254 56.79897461 33.0793457 57.21655273 C43.04999585 59.37138189 54.25372243 65.2256539 59.8918457 73.84155273 C60.38040039 74.57116211 60.86895508 75.30077148 61.37231445 76.05249023 C66.04300003 84.51725178 65.88060683 94.59861372 64.0168457 103.89624023 C60.72954782 114.66214079 54.00402095 123.23801244 44.21606445 128.90795898 C41.73965881 130.16682984 39.23858577 131.32950131 36.7043457 132.46655273 C35.6112207 133.02342773 34.5180957 133.58030273 33.3918457 134.15405273 C14.64900748 140.82523244 -11.72610774 139.79607836 -29.92456055 131.75561523 C-42.25189534 125.0537693 -51.19952315 116.12032321 -55.2956543 102.46655273 C-55.2956543 98.83655273 -55.2956543 95.20655273 -55.2956543 91.46655273 C-44.4056543 91.46655273 -33.5156543 91.46655273 -22.2956543 91.46655273 C-20.9756543 95.09655273 -19.6556543 98.72655273 -18.2956543 102.46655273 C-14.17152318 107.85083503 -7.94068176 111.16966076 -1.2956543 112.46655273 C7.26412994 113.24240242 13.85999268 111.81688533 21.7043457 108.46655273 C22.6943457 108.13655273 23.6843457 107.80655273 24.7043457 107.46655273 C27.47497127 102.84884345 28.83305995 97.80506608 27.7043457 92.46655273 C19.90670726 82.46958038 3.56841778 80.25111885 -8.25292969 77.93481445 C-23.53291564 74.9017145 -39.11433839 70.8759717 -49.1315918 58.13061523 C-54.57650604 49.61814367 -54.6009785 40.40850419 -52.7800293 30.72436523 C-49.80862605 20.73906826 -43.10702099 12.1791052 -34.2331543 6.77905273 C-23.06196564 1.20393795 -12.26217663 -0.17098917 0 0 Z " fill="#989A9C" transform="translate(1409.295654296875,781.533447265625)"/>
<path d="M0 0 C11.88 0 23.76 0 36 0 C36 12.87 36 25.74 36 39 C44.58 39 53.16 39 62 39 C62 47.25 62 55.5 62 64 C53.42 64 44.84 64 36 64 C36.08554789 73.30141993 36.17932205 82.60265747 36.28752708 91.90384197 C36.33744478 96.22289005 36.38377519 100.54191421 36.421875 104.86108398 C36.45878504 109.03035098 36.50516046 113.19941563 36.55806351 117.36850929 C36.57657709 118.95805113 36.59169625 120.54763629 36.60334396 122.13724327 C36.62025859 124.36603837 36.6493055 126.59437314 36.68115234 128.82299805 C36.69447601 130.09096725 36.70779968 131.35893646 36.7215271 132.66532898 C36.99101439 135.89239872 37.50941272 138.13916071 39 141 C41.772329 142.21445659 44.5475214 142.11792215 47.546875 142.09765625 C48.30838867 142.09515869 49.06990234 142.09266113 49.85449219 142.09008789 C50.81000977 142.08098389 51.76552734 142.07187988 52.75 142.0625 C57.32875 142.0315625 57.32875 142.0315625 62 142 C62 151.24 62 160.48 62 170 C56.88633042 171.70455653 51.4306791 171.18591717 46.07836914 171.18530273 C43.96935166 171.18746731 41.86087657 171.20556997 39.75195312 171.22460938 C26.55899036 171.28230711 15.47899246 170.28217687 5.625 160.6875 C5.08875 159.800625 4.5525 158.91375 4 158 C3.6634137 157.48961685 3.32682739 156.9792337 2.9800415 156.4533844 C-1.61028314 148.18485045 -0.49697368 138.68005668 -0.390625 129.52734375 C-0.38315494 127.63449199 -0.37746563 125.74163244 -0.37347412 123.84877014 C-0.358278 118.89204158 -0.31904872 113.93578965 -0.2746582 108.97924805 C-0.23357492 103.91136114 -0.21543533 98.84339643 -0.1953125 93.77539062 C-0.15254799 83.85001843 -0.08224804 73.92512361 0 64 C-7.26 64 -14.52 64 -22 64 C-22 55.75 -22 47.5 -22 39 C-14.74 39 -7.48 39 0 39 C0 26.13 0 13.26 0 0 Z " fill="#BBBCBC" transform="translate(677,955)"/>
<path d="M0 0 C11.88 0 23.76 0 36 0 C36 59.4 36 118.8 36 180 C24.12 180 12.24 180 0 180 C0 120.6 0 61.2 0 0 Z " fill="#111921" transform="translate(632,526)"/>
<path d="M0 0 C11.88 0 23.76 0 36 0 C36 43.23 36 86.46 36 131 C24.12 131 12.24 131 0 131 C0 87.77 0 44.54 0 0 Z " fill="#BBBCBC" transform="translate(610,994)"/>
<path d="M0 0 C11.88 0 23.76 0 36 0 C36 43.23 36 86.46 36 131 C24.12 131 12.24 131 0 131 C0 87.77 0 44.54 0 0 Z " fill="#BBBCBC" transform="translate(337,994)"/>
<path d="M0 0 C11.88 0 23.76 0 36 0 C36 43.23 36 86.46 36 131 C24.12 131 12.24 131 0 131 C0 87.77 0 44.54 0 0 Z " fill="#989A9C" transform="translate(1164,785)"/>
<path d="M0 0 C6.53246575 4.01252347 10.07927216 9.46727455 12.6328125 16.6171875 C13.14585937 17.75671875 13.65890625 18.89625 14.1875 20.0703125 C16.24905201 25.58129182 16.07081545 31.04991474 16.0078125 36.8671875 C16.01941406 37.92292969 16.03101563 38.97867188 16.04296875 40.06640625 C15.99729753 52.50420127 13.60482532 63.15418786 4.96875 72.3984375 C-2.2329348 79.10685622 -9.27334301 80.14683736 -18.9609375 79.8984375 C-25.78752386 79.33477441 -31.59445079 77.48066051 -36.66796875 72.73828125 C-46.58234436 60.36240548 -48.83244475 45.01783041 -47.3671875 29.6171875 C-45.78631986 20.04889316 -42.9201665 9.19232547 -35.3671875 2.6171875 C-24.11562348 -5.08310162 -12.31799767 -5.8140949 0 0 Z " fill="#FCFCFC" transform="translate(415.3671875,602.3828125)"/>
<path d="M0 0 C8.2378882 5.79386743 12.41062356 13.37802089 15 23 C15.54293095 27.66126922 15.56098554 32.24923634 15.5 36.9375 C15.51546875 38.12279297 15.5309375 39.30808594 15.546875 40.52929688 C15.4896713 53.56459017 11.85110056 64.75740798 2.8125 74.3125 C-5.3197434 79.19184604 -13.54602701 81.25621285 -23 80 C-26.34049588 79.10955236 -29.0670113 77.8180136 -32 76 C-32.68835938 75.58363281 -33.37671875 75.16726563 -34.0859375 74.73828125 C-41.25778585 69.50365631 -45.24552619 61.5331226 -47 53 C-47.55178559 47.93243546 -47.710019 42.9078911 -47.75 37.8125 C-47.76546875 36.55429443 -47.7809375 35.29608887 -47.796875 33.99975586 C-47.61051243 22.87696792 -45.05965055 11.787111 -36.98046875 3.65625 C-27.04986366 -4.64863473 -11.53663074 -6.4092393 0 0 Z " fill="#FDFDFD" transform="translate(453,812)"/>
<path d="M0 0 C7.70201915 3.6076996 13.03602484 9.65816301 16.65234375 17.21484375 C22.28852633 33.35379225 21.66144964 52.43790504 14.625 68 C11.20593322 74.5219193 6.42736071 78.24356514 -0.375 81 C-8.36484483 83.03714587 -17.45101312 83.6497059 -24.8125 79.5625 C-32.92118412 73.87710079 -37.41292465 66.30300047 -40.375 57 C-40.71337891 55.99259766 -40.71337891 55.99259766 -41.05859375 54.96484375 C-44.71759003 41.8681605 -43.2435603 26.05722625 -37 14.0625 C-29.06501342 0.99449539 -14.75771912 -4.67927679 0 0 Z " fill="#FEFEFE" transform="translate(960.375,1019)"/>
<path d="M0 0 C8.74168202 5.6918457 12.71100858 14.09170848 15 24 C18.07767589 40.50753433 16.24954685 57.12567972 6.875 71.1875 C2.51338363 76.17609872 -5.26518967 79.63332858 -11.78515625 80.2734375 C-21.75621381 80.58243332 -28.55324999 78.49689672 -35.875 71.625 C-46.54078048 59.88262665 -46.89255897 44.3430883 -46.16845703 29.21875 C-45.27230983 17.41558219 -40.1124118 8.36251134 -31.37890625 0.62890625 C-22.75198448 -5.27819782 -9.10369496 -4.81532767 0 0 Z " fill="#FDFDFE" transform="translate(821,812)"/>
<path d="M0 0 C3.75469824 2.16547217 6.7061509 4.45988108 9.5 7.8125 C10.7684375 9.2975 10.7684375 9.2975 12.0625 10.8125 C20.25229786 23.07127971 20.52722921 39.97948802 18.10449219 54.12109375 C15.86310891 63.48190085 10.92720991 71.21539195 3.5 77.25 C-3.85353536 81.07996633 -11.57089894 81.96888496 -19.703125 80.3828125 C-28.68260225 77.51927842 -33.93354982 70.87671794 -38.2734375 62.8515625 C-41.24627627 55.48573906 -41.8348924 48.32098242 -41.75 40.4375 C-41.74178223 39.51211426 -41.73356445 38.58672852 -41.72509766 37.63330078 C-41.52692707 25.52784794 -39.99557295 15.03273119 -31.57421875 5.671875 C-22.6663176 -2.56144723 -11.30083319 -5.35480437 0 0 Z " fill="#FCFCFC" transform="translate(560.5,601.1875)"/>
<path d="M0 0 C0.08845016 3.14565046 0.14086835 6.29097375 0.1875 9.4375 C0.21263672 10.31599609 0.23777344 11.19449219 0.26367188 12.09960938 C0.3599916 20.80049102 -1.52754454 28.07895339 -7 35 C-12.89066848 40.89066848 -20.38282512 43.2365957 -28.5625 43.4375 C-35.68694459 43.18575284 -41.33164669 42.15739204 -46.9375 37.625 C-50.58490585 32.9828471 -51.47890897 29.10017777 -51.3046875 23.2734375 C-50.68326828 18.63669406 -48.81131725 15.48127245 -45.19921875 12.52734375 C-36.62282357 6.81529803 -26.69376231 6.05811658 -16.71679688 4.58789062 C-11.25975304 3.73235158 -5.04793632 0 0 0 Z " fill="#FCFCFC" transform="translate(969,852)"/>
<path d="M0 0 C0.51858254 26.70700086 0.51858254 26.70700086 -8 36 C-15.0225949 41.11176752 -21.34528667 42.20932518 -29.8125 42.3125 C-30.59431641 42.34150391 -31.37613281 42.37050781 -32.18164062 42.40039062 C-37.97216708 42.46327855 -41.23938642 41.32093628 -46 38 C-50.58526765 32.93207259 -51.46710374 29.63467492 -51.4140625 22.8984375 C-50.74636771 18.22457398 -48.42590304 15.15093902 -45 12 C-40.97236276 9.09867548 -36.78027025 7.9883977 -32 6.9375 C-31.25177979 6.76613525 -30.50355957 6.59477051 -29.73266602 6.41821289 C-24.12820313 5.16594239 -18.50771017 4.29501044 -12.8203125 3.50390625 C-8.52608037 2.73665425 -4.25227953 0 0 0 Z " fill="#FAFAFA" transform="translate(771,643)"/>
<path d="M0 0 C1.10118164 -0.0309375 1.10118164 -0.0309375 2.22460938 -0.0625 C9.13564743 -0.11155795 14.89508286 1.77817812 20.203125 6.47265625 C25.34057862 12.62408098 27.57177506 19.43992541 28.6875 27.25 C9.5475 27.25 -9.5925 27.25 -29.3125 27.25 C-28.27441009 17.90719078 -26.96138951 12.2839183 -19.83203125 6.09765625 C-13.04051463 1.1921147 -8.33938802 0.05766215 0 0 Z " fill="#FCFCFC" transform="translate(1280.3125,808.75)"/>
<path d="M0 0 C6.93294765 5.38530235 10.53124215 12.11863416 12.15234375 20.671875 C12.15234375 21.661875 12.15234375 22.651875 12.15234375 23.671875 C-6.65765625 23.671875 -25.46765625 23.671875 -44.84765625 23.671875 C-43.80909423 13.28625479 -42.49363275 9.4469064 -35.59765625 2.359375 C-24.80705779 -4.2621286 -11.4294367 -6.77018214 0 0 Z " fill="#FDFDFD" transform="translate(824.84765625,1021.328125)"/>
<path d="M0 0 C11.88 0 23.76 0 36 0 C36 9.9 36 19.8 36 30 C24.12 30 12.24 30 0 30 C0 20.1 0 10.2 0 0 Z " fill="#BCBDBD" transform="translate(610,945)"/>
<path d="M0 0 C11.88 0 23.76 0 36 0 C36 9.9 36 19.8 36 30 C24.12 30 12.24 30 0 30 C0 20.1 0 10.2 0 0 Z " fill="#BCBDBD" transform="translate(337,945)"/>
<path d="M0 0 C11.55 0 23.1 0 35 0 C35 9.57 35 19.14 35 29 C23.45 29 11.9 29 0 29 C0 19.43 0 9.86 0 0 Z " fill="#97999B" transform="translate(1164,736)"/>
<path d="M0 0 C12.54 0 25.08 0 38 0 C37.67 1.32 37.34 2.64 37 4 C37 3.34 37 2.68 37 2 C25.12 2.33 13.24 2.66 1 3 C0.67 2.01 0.34 1.02 0 0 Z " fill="#363D44" transform="translate(812,575)"/>
<path d="M0 0 C11.55 0 23.1 0 35 0 C35 1.65 35 3.3 35 5 C34.505 3.515 34.505 3.515 34 2 C29.47914629 2.11813019 24.95851786 2.24236976 20.43798828 2.37231445 C18.89962347 2.41566926 17.36121037 2.45734395 15.82275391 2.49731445 C13.6134586 2.55500398 11.40440652 2.61870179 9.1953125 2.68359375 C8.50567413 2.70030624 7.81603577 2.71701874 7.10549927 2.73423767 C3.42885736 2.80806995 3.42885736 2.80806995 0 4 C0 2.68 0 1.36 0 0 Z " fill="#333B41" transform="translate(896,575)"/>
<path d="M0 0 C0.66 0.33 1.32 0.66 2 1 C0.92173635 2.27513763 -0.16285519 3.54492569 -1.25 4.8125 C-1.85328125 5.52019531 -2.4565625 6.22789062 -3.078125 6.95703125 C-4.92370398 8.91889671 -6.79945332 10.45669625 -9 12 C-9.66 11.67 -10.32 11.34 -11 11 C-7.6189962 6.86378916 -4.33409466 3.18683431 0 0 Z " fill="#20282F" transform="translate(706,582)"/>
<path d="M0 0 C0.99 0.33 1.98 0.66 3 1 C-0.465 3.97 -0.465 3.97 -4 7 C-4 5.68 -4 4.36 -4 3 C-2.1875 1.1875 -2.1875 1.1875 0 0 Z " fill="#222930" transform="translate(697,641)"/>
<path d="M0 0 C0.99 0.33 1.98 0.66 3 1 C0.69 3.31 -1.62 5.62 -4 8 C-4.99 7.67 -5.98 7.34 -7 7 C-4.69 4.69 -2.38 2.38 0 0 Z " fill="#181F27" transform="translate(354,587)"/>
<path d="M0 0 C2.64 0.33 5.28 0.66 8 1 C8 1.66 8 2.32 8 3 C9.65 3 11.3 3 13 3 C13 3.33 13 3.66 13 4 C7.66404866 4.27131956 4.38616179 4.4266889 0 1 C0 0.67 0 0.34 0 0 Z " fill="#3C4349" transform="translate(379,705)"/>
<path d="M0 0 C0.99 0.33 1.98 0.66 3 1 C1.37660195 2.70884005 -0.29319053 4.37446717 -2 6 C-2.66 6 -3.32 6 -4 6 C-4 6.66 -4 7.32 -4 8 C-4.99 7.67 -5.98 7.34 -7 7 C-6.34 7 -5.68 7 -5 7 C-4.731875 6.401875 -4.46375 5.80375 -4.1875 5.1875 C-3.01506533 3.02775192 -1.80630718 1.64209744 0 0 Z " fill="#171F27" transform="translate(526,584)"/>
<path d="M0 0 C-7.42857143 2.42857143 -7.42857143 2.42857143 -11 1 C-10.34 1 -9.68 1 -9 1 C-9 0.34 -9 -0.32 -9 -1 C-5.22102349 -2.0497157 -3.35080929 -2.10976881 0 0 Z " fill="#363C43" transform="translate(765,646)"/>
</svg>
