<?xml version="1.0" encoding="UTF-8"?>
<svg version="1.1" xmlns="http://www.w3.org/2000/svg" width="400" height="400">
<path d="M0 0 C132 0 264 0 400 0 C400 132 400 264 400 400 C268 400 136 400 0 400 C0 268 0 136 0 0 Z " fill="#FEFEFE" transform="translate(0,0)"/>
<path d="M0 0 C7.02254448 5.6673166 7.02254448 5.6673166 10 9 C10 12.43118777 9.31044818 13.53320594 7.578125 16.4375 C7.05323486 17.3229248 6.52834473 18.20834961 5.98754883 19.12060547 C5.12746216 20.54590576 5.12746216 20.54590576 4.25 22 C3.66307373 22.98242676 3.07614746 23.96485352 2.47143555 24.97705078 C-1.33853561 31.32478692 -5.2289009 37.61903449 -9.1875 43.875 C-9.91525635 45.02766357 -9.91525635 45.02766357 -10.65771484 46.20361328 C-13.0766945 50.0199371 -15.53081824 53.80679862 -18.04296875 57.5625 C-18.52032471 58.28969238 -18.99768066 59.01688477 -19.48950195 59.76611328 C-20.38817043 61.13398963 -21.30132489 62.49249956 -22.23120117 63.83935547 C-24.62238816 67.48210236 -24.62238816 67.48210236 -24.45703125 71.6953125 C-23.0286262 73.95471995 -21.54746811 75.96726849 -19.8125 78 C-13.4624503 85.95413324 -8.56679767 95.13048218 -6 105 C-5.79632813 105.68320313 -5.59265625 106.36640625 -5.3828125 107.0703125 C-0.31404471 126.99820777 -5.11471074 148.13850244 -14.55859375 165.9375 C-28.29875871 188.60712467 -48.77426601 203.38903569 -74 211 C-75.01449219 211.3196875 -76.02898437 211.639375 -77.07421875 211.96875 C-102.10084402 218.61789029 -127.81674397 213.48781548 -150.09375 201.30859375 C-156.60183606 197.36900794 -165.51603208 191.96793585 -169 185 C-167.85107422 182.71948242 -167.85107422 182.71948242 -166.0546875 179.85546875 C-165.395896 178.79593994 -164.73710449 177.73641113 -164.05834961 176.64477539 C-163.33070716 175.49226139 -162.60292067 174.3398383 -161.875 173.1875 C-161.13928191 172.01016721 -160.4043432 170.83234704 -159.67016602 169.65405273 C-158.17438807 167.25556227 -156.67453736 164.85969674 -155.17138672 162.46582031 C-153.19547114 159.31642903 -151.236951 156.15659797 -149.28515625 152.9921875 C-148.72078857 152.07735596 -148.1564209 151.16252441 -147.57495117 150.2199707 C-146.49457136 148.46658853 -145.4152831 146.71253325 -144.3371582 144.95776367 C-142.14477795 141.40252413 -139.94416491 137.87100368 -137.5703125 134.43359375 C-136.57644531 132.98146484 -136.57644531 132.98146484 -135.5625 131.5 C-135.00691406 130.7265625 -134.45132813 129.953125 -133.87890625 129.15625 C-132.74042306 126.97268574 -132.74042306 126.97268574 -133.640625 124.46484375 C-134.97348412 122.04807908 -136.38480008 120.14571157 -138.1875 118.0625 C-146.19843552 108.04464952 -151.41340043 95.69279653 -153 83 C-153.33 82.67 -153.66 82.34 -154 82 C-155.54480836 55.85708933 -148.67543938 33.80976543 -131.4765625 13.7434082 C-118.65459409 -0.54485625 -101.53260796 -10.31359339 -83 -15 C-82.08347656 -15.29648438 -81.16695313 -15.59296875 -80.22265625 -15.8984375 C-53.36061642 -23.75873909 -22.16930628 -16.49966746 0 0 Z " fill="#E20D77" transform="translate(279,102)"/>
<path d="M0 0 C7.02254448 5.6673166 7.02254448 5.6673166 10 9 C10 12.43118777 9.31044818 13.53320594 7.578125 16.4375 C7.05323486 17.3229248 6.52834473 18.20834961 5.98754883 19.12060547 C5.12746216 20.54590576 5.12746216 20.54590576 4.25 22 C3.66307373 22.98242676 3.07614746 23.96485352 2.47143555 24.97705078 C-2.27681428 32.88803902 -7.15964174 40.70931931 -12.1328125 48.48046875 C-14.0883943 51.54129281 -15.99456416 54.62602496 -17.8671875 57.73828125 C-18.54938354 58.86290771 -18.54938354 58.86290771 -19.24536133 60.01025391 C-20.10293437 61.42783247 -20.95219474 62.85048414 -21.79174805 64.27880859 C-22.78088638 65.90419666 -23.8812623 67.46093959 -25 69 C-29.19810208 69 -30.348162 67.15663501 -33.4375 64.375 C-39.11670645 59.40613502 -45.06489027 56.02488829 -52 53 C-52.27908203 53.73629639 -52.55816406 54.47259277 -52.84570312 55.23120117 C-53.89632007 57.75130412 -55.06016224 59.96787397 -56.46875 62.30078125 C-57.19348511 63.50589355 -57.19348511 63.50589355 -57.93286133 64.73535156 C-58.45001709 65.58581055 -58.96717285 66.43626953 -59.5 67.3125 C-60.03971436 68.20549805 -60.57942871 69.09849609 -61.13549805 70.01855469 C-65.54389694 77.29380896 -70.03133486 84.51738584 -74.56298828 91.71630859 C-77.46480289 96.32785699 -80.3584903 100.9444849 -83.25 105.5625 C-83.88099609 106.56974121 -84.51199219 107.57698242 -85.16210938 108.61474609 C-90.39195416 116.98276269 -95.52807856 125.40587572 -100.60839844 133.86547852 C-101.15657227 134.77354248 -101.70474609 135.68160645 -102.26953125 136.6171875 C-102.75010986 137.41753418 -103.23068848 138.21788086 -103.72583008 139.04248047 C-105 141 -105 141 -107 143 C-118.00144497 141.81449946 -129.36035535 129.39180548 -136.2890625 121.33984375 C-144.85207865 110.11534961 -151.24259112 97.05927105 -153 83 C-153.33 82.67 -153.66 82.34 -154 82 C-155.54480836 55.85708933 -148.67543938 33.80976543 -131.4765625 13.7434082 C-118.65459409 -0.54485625 -101.53260796 -10.31359339 -83 -15 C-82.08347656 -15.29648438 -81.16695313 -15.59296875 -80.22265625 -15.8984375 C-53.36061642 -23.75873909 -22.16930628 -16.49966746 0 0 Z " fill="#FD7801" transform="translate(279,102)"/>
</svg>
