<?xml version="1.0" encoding="UTF-8"?>
<svg version="1.1" xmlns="http://www.w3.org/2000/svg" width="400" height="400">
<path d="M0 0 C132 0 264 0 400 0 C400 132 400 264 400 400 C268 400 136 400 0 400 C0 268 0 136 0 0 Z " fill="#000000" transform="translate(0,0)"/>
<path d="M0 0 C3.13585498 2.46707075 5.29698153 5.1076305 7.125 8.6875 C7.03515625 10.69921875 7.03515625 10.69921875 6.125 12.6875 C3.83984375 14.171875 3.83984375 14.171875 1.0625 15.4375 C-0.31615234 16.07945312 -0.31615234 16.07945312 -1.72265625 16.734375 C-2.43292969 17.04890625 -3.14320312 17.3634375 -3.875 17.6875 C-4.6175 16.73875 -5.36 15.79 -6.125 14.8125 C-8.95122121 11.47183478 -8.95122121 11.47183478 -12.875 9.6875 C-18.31678833 9.25561204 -21.37136698 9.30977524 -25.875 12.6875 C-25.77092083 16.08830577 -25.77092083 16.08830577 -24.875 19.6875 C-20.03719484 23.42886423 -13.73014872 24.97232481 -8 26.90625 C-0.90647084 29.40587456 5.89801275 32.51812923 9.46484375 39.60546875 C11.27447233 45.3127589 10.98217831 51.48008259 8.6875 57 C5.28043295 62.8630447 -0.44029065 65.79477324 -6.625 68.0625 C-15.38857723 69.72094589 -23.77176013 69.81919738 -31.6484375 65.31640625 C-36.52055504 61.75206763 -40.48090775 57.2587988 -42.875 51.6875 C-43.25 48.625 -43.25 48.625 -42.875 45.6875 C-40.67533559 43.14942568 -39.30593569 42.7380275 -35.9765625 42.34765625 C-32.875 42.6875 -32.875 42.6875 -30.75 44.55078125 C-30.13125 45.35902344 -29.5125 46.16726562 -28.875 47 C-25.35093832 51.24489248 -22.60583473 54.17774238 -16.90234375 54.95703125 C-13.64094228 55.12162534 -11.00107727 54.73310242 -7.9375 53.625 C-5.04355715 50.90644763 -5.09359217 48.54929505 -4.875 44.6875 C-9.19996082 41.54509375 -13.00989258 39.80381988 -18.1875 38.25 C-27.42491112 35.3328036 -34.86804138 32.49204428 -39.94921875 23.86328125 C-41.9846956 19.07948123 -41.59557299 13.35544431 -40.2578125 8.40234375 C-37.87468341 2.92958269 -33.99519576 -0.38116382 -28.875 -3.3125 C-19.1578912 -7.1299356 -8.68630362 -5.76606879 0 0 Z " fill="#F8F8F8" transform="translate(90.875,171.3125)"/>
<path d="M0 0 C5.55196847 4.23244233 9.87863303 8.42201136 11.7421875 15.328125 C11.7421875 19.948125 11.7421875 24.568125 11.7421875 29.328125 C-0.7978125 29.328125 -13.3378125 29.328125 -26.2578125 29.328125 C-23.04443015 34.91924819 -23.04443015 34.91924819 -18.2578125 37.328125 C-13.4196958 37.9428692 -9.39920369 37.89882059 -5.0078125 35.703125 C-2.2578125 34.328125 -2.2578125 34.328125 0.8046875 34.953125 C3.58361148 36.25389792 6.16704923 37.66185906 8.7421875 39.328125 C6.80967722 44.24724208 3.25646931 46.40638825 -1.1328125 49.078125 C-7.88053845 51.73587264 -16.33366705 51.45079443 -23.20703125 49.484375 C-30.53226463 46.16390167 -35.02585605 40.92805477 -39.1953125 34.203125 C-41.8699872 26.85197503 -41.42506641 17.87389177 -38.1953125 10.828125 C-34.56698038 4.62123101 -29.59607736 0.0485007 -22.69140625 -2.19921875 C-15.16291765 -3.66141316 -6.7366872 -4.10562053 0 0 Z " fill="#F8F8F8" transform="translate(199.2578125,189.671875)"/>
<path d="M0 0 C5.39880312 4.46142851 9.17287477 8.95757755 11.77734375 15.46875 C11.77734375 20.08875 11.77734375 24.70875 11.77734375 29.46875 C-0.76265625 29.46875 -13.30265625 29.46875 -26.22265625 29.46875 C-23.01242537 35.06016839 -23.01242537 35.06016839 -18.22265625 37.46875 C-12.77027163 38.07161529 -8.243941 37.70043211 -3.22265625 35.46875 C-0.07112582 35.15359696 1.91709132 34.99699867 4.71484375 36.53125 C5.77734375 38.46875 5.77734375 38.46875 6.08984375 41.84375 C4.63802152 45.85354474 4.08093424 46.37810324 0.52734375 48.40625 C-7.06656652 51.69803085 -15.20988229 51.60592614 -23.09765625 49.28125 C-24.49105989 48.72083172 -25.86834517 48.11796788 -27.22265625 47.46875 C-27.84785156 47.17484375 -28.47304688 46.8809375 -29.1171875 46.578125 C-35.19335905 43.03038213 -38.09262935 36.97133212 -40.22265625 30.46875 C-41.60083281 21.54013473 -40.61280213 13.84116615 -35.22265625 6.46875 C-26.75357384 -3.00616168 -11.41739511 -6.99534055 0 0 Z " fill="#F7F7F7" transform="translate(311.22265625,189.53125)"/>
<path d="M0 0 C4.89872999 2.85759249 7.79346527 7.1303958 9.5625 12.4375 C9.6478013 15.31444671 9.67835645 18.16650182 9.66015625 21.04296875 C9.6587413 21.88217361 9.65732635 22.72137848 9.65586853 23.58601379 C9.65027215 26.26571216 9.63772035 28.9453269 9.625 31.625 C9.61998453 33.44205608 9.61542171 35.25911348 9.61132812 37.07617188 C9.60030391 41.52998013 9.58304178 45.98372589 9.5625 50.4375 C5.2725 50.4375 0.9825 50.4375 -3.4375 50.4375 C-3.44160889 49.43372314 -3.44571777 48.42994629 -3.44995117 47.39575195 C-3.47178312 43.65858156 -3.52611294 39.92245799 -3.59008789 36.18579102 C-3.61323286 34.57098451 -3.62765543 32.95602779 -3.63305664 31.34106445 C-3.64237274 29.01418852 -3.68341368 26.68966324 -3.73046875 24.36328125 C-3.7265361 23.64537918 -3.72260345 22.92747711 -3.71855164 22.18782043 C-3.83201074 18.2582264 -4.32809487 16.57206264 -6.83911133 13.48364258 C-9.52223225 11.37077624 -10.58781314 10.75352664 -13.9375 10.8125 C-15.03578125 10.79316406 -15.03578125 10.79316406 -16.15625 10.7734375 C-19.67025387 11.79634959 -21.14566105 13.61865691 -23.4375 16.4375 C-23.94472152 19.27482319 -24.16004511 21.53123781 -24.14453125 24.36328125 C-24.15965256 25.11087204 -24.17477386 25.85846283 -24.19035339 26.62870789 C-24.23314081 29.00278087 -24.2420588 31.37558031 -24.25 33.75 C-24.27315158 35.36526802 -24.29851831 36.98050591 -24.32617188 38.59570312 C-24.38893457 42.54308086 -24.42133984 46.48966754 -24.4375 50.4375 C-29.0575 50.4375 -33.6775 50.4375 -38.4375 50.4375 C-38.4375 33.6075 -38.4375 16.7775 -38.4375 -0.5625 C-34.4775 -0.5625 -30.5175 -0.5625 -26.4375 -0.5625 C-26.1075 1.0875 -25.7775 2.7375 -25.4375 4.4375 C-24.7775 4.4375 -24.1175 4.4375 -23.4375 4.4375 C-23.1075 3.4475 -22.7775 2.4575 -22.4375 1.4375 C-16.16668696 -3.1384987 -6.97994233 -3.07276399 0 0 Z " fill="#F6F6F6" transform="translate(255.4375,188.5625)"/>
<path d="M0 0 C4.00055431 2.67215527 7.03922 6.07861506 9.875 9.9375 C1.42672414 16.9375 1.42672414 16.9375 -2.125 16.9375 C-2.74375 16.1125 -3.3625 15.2875 -4 14.4375 C-6.73944817 11.56682078 -9.24423996 11.45552555 -13.125 11.3125 C-17.27623955 11.4909931 -18.77670157 11.6936911 -22.25 14.125 C-25.46108861 18.94163292 -26.66994495 22.01077191 -25.73828125 27.9375 C-24.66006775 31.45371216 -22.74567492 33.3792221 -20.125 35.9375 C-15.31252651 37.54165783 -11.51460741 37.51431817 -6.8125 35.5625 C-4.0917257 34.06370781 -4.0917257 34.06370781 -2.125 31.9375 C2.54489808 32.20435132 5.97333692 34.56590087 9.875 36.9375 C8.26730638 42.56442768 4.68033855 45.22652124 -0.09765625 48.140625 C-7.38187385 51.89510376 -15.54493975 52.3363156 -23.375 49.875 C-30.7769577 46.55953978 -35.51239595 41.44606285 -38.43359375 33.953125 C-40.87085938 26.84787604 -40.94568378 20.31830017 -38.29296875 13.20703125 C-35.17767874 7.15357474 -30.0069931 1.24927824 -23.65234375 -1.46875 C-16.11225076 -3.24014743 -7.01087934 -3.59471233 0 0 Z " fill="#F8F8F8" transform="translate(146.125,189.0625)"/>
<path d="M0 0 C3.8465922 2.07124195 6.78738658 4.18938799 9 8 C9 8.99 9 9.98 9 11 C0.75 11 -7.5 11 -16 11 C-14.91930212 5.59651059 -14.0311625 4.45528214 -10 1 C-6.38069302 -0.20643566 -3.80768995 -0.32268559 0 0 Z " fill="#151515" transform="translate(189,198)"/>
<path d="M0 0 C2.57923325 1.42578732 3.94118149 2.78677011 6 5 C6.33 6.32 6.66 7.64 7 9 C-1.25 9 -9.5 9 -18 9 C-17 4 -17 4 -14.625 1.75 C-9.71281974 -1.52478684 -5.57439206 -1.39597212 0 0 Z " fill="#080808" transform="translate(303,199)"/>
<path d="M0 0 C2.875 1.625 2.875 1.625 5 4 C5.625 6.9375 5.625 6.9375 5 10 C2.51877621 13.35694984 1.05634831 14.78441871 -3.0625 15.625 C-6 15 -6 15 -8.375 12.875 C-10.28071139 9.50335677 -10.64850195 7.80994895 -10 4 C-7.20900702 -0.07914358 -4.82277608 -0.78739201 0 0 Z " fill="#9743F5" transform="translate(339,145)"/>
<path d="M0 0 C2 1.625 2 1.625 3 4 C2.93439072 7.739729 2.76345433 10.0603639 0.375 13 C-3.11581787 14.46981805 -5.39148956 13.98413921 -9 13 C-11.57572291 10.75662843 -11.93881541 9.36710755 -12.5 6 C-12 3 -12 3 -9.9375 0.5625 C-6.08703161 -1.48562148 -4.14064223 -1.22685696 0 0 Z " fill="#2F70D9" transform="translate(362,167)"/>
<path d="M0 0 C2.9375 2.0625 2.9375 2.0625 5 5 C5.125 8.625 5.125 8.625 4 12 C1.17708663 14.58094937 -0.30522028 15.01389559 -4.125 14.9375 C-7 14 -7 14 -8.875 12.3125 C-10.35810604 9.26389315 -10.48891657 7.35257076 -10 4 C-7.2247536 -0.05612936 -4.80517165 -0.88258255 0 0 Z " fill="#29A970" transform="translate(339,166)"/>
<path d="M0 0 C2 1.625 2 1.625 3 4 C2.93439072 7.739729 2.76345433 10.0603639 0.375 13 C-3.11581787 14.46981805 -5.39148956 13.98413921 -9 13 C-11 11.375 -11 11.375 -12 9 C-11.93439072 5.260271 -11.76345433 2.9396361 -9.375 0 C-5.88418213 -1.46981805 -3.60851044 -0.98413921 0 0 Z " fill="#EF90A4" transform="translate(341,188)"/>
<path d="M0 0 C2.375 1.5625 2.375 1.5625 4 4 C4.56645882 7.96521177 4.57590314 10.07855498 2.4375 13.5 C0 15 0 15 -3.5625 14.9375 C-7 14 -7 14 -8.9375 12.875 C-10.6712306 9.81547541 -10.42145216 7.43182475 -10 4 C-7.26646839 -0.10029741 -4.80388991 -0.80064832 0 0 Z " fill="#EE3D49" transform="translate(318,166)"/>
<path d="M0 0 C1.46921926 2.93843852 1 5.75397821 1 9 C1.98267859 10.20561184 1.98267859 10.20561184 3.84765625 10.09765625 C5.8984375 10.06510417 7.94921875 10.03255208 10 10 C10.33 7.03 10.66 4.06 11 1 C11.66 1.33 12.32 1.66 13 2 C13.46707789 6.01686987 13.32150834 7.56501812 10.875 10.875 C8 13 8 13 4.9375 13.625 C2 13 2 13 -0.375 10.875 C-2.24502854 7.56648796 -2.49884697 5.7413523 -2 2 C-1.34 1.34 -0.68 0.68 0 0 Z " fill="#8445CB" transform="translate(331,147)"/>
<path d="M0 0 C3.3 0 6.6 0 10 0 C10 1.65 10 3.3 10 5 C7.03 5 4.06 5 1 5 C0.67 3.35 0.34 1.7 0 0 Z " fill="#848484" transform="translate(331,234)"/>
<path d="M0 0 C0.66 0.33 1.32 0.66 2 1 C2.1875 3.8125 2.1875 3.8125 2 7 C1.01 7.99 0.02 8.98 -1 10 C-0.67 6.7 -0.34 3.4 0 0 Z " fill="#793DBF" transform="translate(342,148)"/>
</svg>
