<?xml version="1.0" encoding="UTF-8"?>
<svg version="1.1" xmlns="http://www.w3.org/2000/svg" width="400" height="400">
<path d="M0 0 C132 0 264 0 400 0 C400 132 400 264 400 400 C268 400 136 400 0 400 C0 268 0 136 0 0 Z " fill="#E02F29" transform="translate(0,0)"/>
<path d="M0 0 C4.91903005 3.22754202 8.72234931 7.36130614 10.9375 12.875 C12.36875186 25.93933383 9.23323059 35.98253436 1.26171875 46.296875 C-6.33071885 54.71873856 -15.72610689 59.80508858 -26.984375 61.25 C-33.16838289 61.52332632 -38.07126636 60.6447503 -43.0625 56.875 C-49.0449958 51.31813631 -52.04115799 46.3683297 -52.375 38.125 C-52.05689638 25.64411078 -46.09978754 16.20173574 -37.2734375 7.73046875 C-27.15073672 -0.76473067 -12.67700783 -6.61501583 0 0 Z " fill="#39B4E6" transform="translate(368.0625,169.125)"/>
<path d="M0 0 C4.2913183 2.45775503 7.76740454 5.53480908 10 10 C10.46987207 14.79269514 10.05226232 18.31909976 7.36328125 22.421875 C3.71418006 26.64604944 -0.16945342 27.80968594 -5.64453125 28.37890625 C-13.95886577 28.63184479 -18.4074196 27.95912103 -24.8125 22.4375 C-27.48767611 19.19912891 -27.39581411 15.28758461 -27.34375 11.28515625 C-26.76421714 7.43257987 -24.80817717 5.56398785 -22 3 C-15.05408443 -1.18367919 -7.80363731 -1.24394615 0 0 Z " fill="#FDF4F3" transform="translate(120,173)"/>
<path d="M0 0 C6.0328125 -0.0928125 6.0328125 -0.0928125 12.1875 -0.1875 C14.07698364 -0.22846802 14.07698364 -0.22846802 16.00463867 -0.27026367 C17.50861206 -0.28150269 17.50861206 -0.28150269 19.04296875 -0.29296875 C20.06414795 -0.3086792 21.08532715 -0.32438965 22.13745117 -0.34057617 C25.74371145 0.08848422 28.41524436 1.41524436 31 4 C31.46993007 11.28391608 31.46993007 11.28391608 29.6875 14 C28 15 28 15 25 15 C25.5053125 15.62648437 26.010625 16.25296875 26.53125 16.8984375 C27.1809375 17.71570313 27.830625 18.53296875 28.5 19.375 C29.47453125 20.59316406 29.47453125 20.59316406 30.46875 21.8359375 C32 24 32 24 32 26 C21.37075352 27.06801041 21.37075352 27.06801041 18.08984375 24.51171875 C16.31897455 22.01804579 15 20.10630411 15 17 C13.68 17 12.36 17 11 17 C11 19.97 11 22.94 11 26 C7.37 26 3.74 26 0 26 C0 17.42 0 8.84 0 0 Z " fill="#FDF9F8" transform="translate(236,174)"/>
<path d="M0 0 C1.43352212 0.00015908 2.86704998 0.00585132 4.30053711 0.01586914 C5.43041298 0.01799156 5.43041298 0.01799156 6.58311462 0.02015686 C8.99807646 0.02577163 11.41294687 0.03832656 13.82788086 0.05102539 C15.46134307 0.05603849 17.09480672 0.06060173 18.72827148 0.06469727 C22.74067671 0.07574585 26.75301326 0.09302033 30.76538086 0.11352539 C31.37353516 2.47143555 31.37353516 2.47143555 31.76538086 5.11352539 C30.03491211 7.38696289 30.03491211 7.38696289 27.57788086 9.48852539 C26.38098633 10.55200195 26.38098633 10.55200195 25.15991211 11.63696289 C22.76538086 13.11352539 22.76538086 13.11352539 20.46459961 12.84008789 C19.90385742 12.60032227 19.34311523 12.36055664 18.76538086 12.11352539 C19.09538086 10.46352539 19.42538086 8.81352539 19.76538086 7.11352539 C15.80538086 7.11352539 11.84538086 7.11352539 7.76538086 7.11352539 C15.38014969 12.85450294 23.03501941 18.52879576 30.76538086 24.11352539 C29.39554583 27.27468315 28.77631706 28.10623459 25.76538086 30.11352539 C22.57910156 30.34057617 22.57910156 30.34057617 18.69116211 30.30883789 C18.00732956 30.306008 17.32349701 30.3031781 16.61894226 30.30026245 C14.43840921 30.28908223 12.25828941 30.2639823 10.07788086 30.23852539 C8.59806909 30.22849277 7.11825087 30.21936741 5.63842773 30.21118164 C2.01394486 30.1891502 -1.6102968 30.15463541 -5.23461914 30.11352539 C-5.56461914 28.79352539 -5.89461914 27.47352539 -6.23461914 26.11352539 C-4.66444721 24.74411972 -3.07796523 23.39339645 -1.48461914 22.05102539 C-0.60290039 21.29692383 0.27881836 20.54282227 1.18725586 19.76586914 C3.76538086 18.11352539 3.76538086 18.11352539 6.03100586 18.17993164 C7.76538086 19.11352539 7.76538086 19.11352539 8.76538086 22.11352539 C8.43538086 22.77352539 8.10538086 23.43352539 7.76538086 24.11352539 C11.39538086 23.78352539 15.02538086 23.45352539 18.76538086 23.11352539 C17.67483398 22.29561523 17.67483398 22.29561523 16.56225586 21.46118164 C9.29663086 16.01196289 2.03100586 10.56274414 -5.23461914 5.11352539 C-4.11254455 0.14433793 -4.11254455 0.14433793 0 0 Z " fill="#F0F9FC" transform="translate(336.234619140625,191.886474609375)"/>
<path d="M0 0 C4.16625 -0.0825 8.3325 -0.165 12.625 -0.25 C13.92775879 -0.28641602 15.23051758 -0.32283203 16.57275391 -0.36035156 C26.1448243 -0.45223395 26.1448243 -0.45223395 29.79296875 1.734375 C32 4 32 4 32.76171875 6.21875 C32.56028369 12.4102277 32.56028369 12.4102277 29.625 15.5 C25.32218598 17.95875087 22.8927955 18.10811632 17.875 18.0625 C16.59367187 18.05347656 15.31234375 18.04445312 13.9921875 18.03515625 C13.00476563 18.02355469 12.01734375 18.01195312 11 18 C11 20.97 11 23.94 11 27 C7.37 27 3.74 27 0 27 C0 18.09 0 9.18 0 0 Z " fill="#FDF3F3" transform="translate(133,174)"/>
<path d="M0 0 C3.63 0 7.26 0 11 0 C11 2.97 11 5.94 11 9 C14.3 9 17.6 9 21 9 C21 6.03 21 3.06 21 0 C24.63 0 28.26 0 32 0 C32 8.58 32 17.16 32 26 C28.37 26 24.74 26 21 26 C21 22.7 21 19.4 21 16 C17.7 16 14.4 16 11 16 C11 19.3 11 22.6 11 26 C7.37 26 3.74 26 0 26 C0 17.42 0 8.84 0 0 Z " fill="#FDF8F8" transform="translate(57,174)"/>
<path d="M0 0 C6.249375 -0.1546875 6.249375 -0.1546875 12.625 -0.3125 C13.92775879 -0.35802002 15.23051758 -0.40354004 16.57275391 -0.45043945 C26.14012703 -0.56523608 26.14012703 -0.56523608 29.79296875 2.30078125 C32 5 32 5 32.6875 8.5 C31.8365478 12.8321203 30.4242043 14.29248963 27 17 C23.43954823 18.18681726 20.56191663 18.09689832 16.8125 18.0625 C15.54019531 18.05347656 14.26789063 18.04445312 12.95703125 18.03515625 C11.49330078 18.01775391 11.49330078 18.01775391 10 18 C10 20.64 10 23.28 10 26 C6.7 26 3.4 26 0 26 C0 17.42 0 8.84 0 0 Z " fill="#FDF6F5" transform="translate(169,174)"/>
<path d="M0 0 C2.16796875 0.73828125 2.16796875 0.73828125 3.8125 1.6875 C4.1425 2.6775 4.4725 3.6675 4.8125 4.6875 C1.71344905 7.03993447 0.21233314 7.70377484 -3.73828125 7.54296875 C-4.97964844 7.32253906 -6.22101563 7.10210937 -7.5 6.875 C-9.38138672 6.55595703 -9.38138672 6.55595703 -11.30078125 6.23046875 C-12.25339844 6.05128906 -13.20601563 5.87210938 -14.1875 5.6875 C-13.8575 6.3475 -13.5275 7.0075 -13.1875 7.6875 C-9.83685264 8.61323814 -6.48757222 9.37408388 -3.08984375 10.09960938 C3.81950984 11.67906999 3.81950984 11.67906999 5.8125 14.6875 C6.375 17.5625 6.375 17.5625 5.8125 20.6875 C3.55601897 23.2752076 0.88741967 25.15004017 -2.1875 26.6875 C-4.95117582 26.83909403 -7.67282157 26.91891393 -10.4375 26.9375 C-11.18902344 26.958125 -11.94054687 26.97875 -12.71484375 27 C-17.61026445 27.03417397 -20.96352699 26.4266825 -25.1875 23.6875 C-25.8475 22.6975 -26.5075 21.7075 -27.1875 20.6875 C-24.5475 19.3675 -21.9075 18.0475 -19.1875 16.6875 C-18.713125 17.1825 -18.23875 17.6775 -17.75 18.1875 C-13.98391649 20.39203669 -10.45290621 19.93358113 -6.1875 19.6875 C-5.8575 18.6975 -5.5275 17.7075 -5.1875 16.6875 C-6.05632812 16.66171875 -6.92515625 16.6359375 -7.8203125 16.609375 C-20.09709615 16.00514851 -20.09709615 16.00514851 -24.1875 11.6875 C-25.4375 8.25 -25.4375 8.25 -25.1875 4.6875 C-18.93673074 -3.12096894 -8.86222139 -2.72135737 0 0 Z " fill="#FDF4F4" transform="translate(296.1875,174.3125)"/>
<path d="M0 0 C1.9375 1.625 1.9375 1.625 3 3 C0.95703125 5.046875 0.95703125 5.046875 -2 7 C-5.55078125 6.953125 -5.55078125 6.953125 -9.3125 6.25 C-10.56675781 6.02828125 -11.82101563 5.8065625 -13.11328125 5.578125 C-14.06589844 5.38734375 -15.01851562 5.1965625 -16 5 C-16 5.99 -16 6.98 -16 8 C-14.576875 7.9071875 -14.576875 7.9071875 -13.125 7.8125 C-8.20157531 7.80243165 -3.55068357 9.18638205 1 11 C3 13 3 13 3.375 16.375 C3 20 3 20 1.3125 22.3125 C-5.39673182 27.20842592 -13.01021039 26.72634451 -21 26 C-24.11861699 24.98401996 -26.23331297 23.80681602 -29 22 C-29 21.01 -29 20.02 -29 19 C-26.34699082 17.26534015 -25.15493427 16.98419038 -21.9375 17.3125 C-19 18 -19 18 -16 19 C-13.66700175 19.03954234 -11.33291811 19.04401732 -9 19 C-8.67 18.01 -8.34 17.02 -8 16 C-9.03640625 15.90203125 -10.0728125 15.8040625 -11.140625 15.703125 C-12.51051741 15.5529998 -13.88030404 15.40190713 -15.25 15.25 C-16.27287109 15.1571875 -16.27287109 15.1571875 -17.31640625 15.0625 C-20.65007042 14.67411194 -22.75532989 14.18574637 -25.44921875 12.140625 C-27 10 -27 10 -27.5625 6.5 C-27 3 -27 3 -24.75 0.625 C-17.47966918 -3.67110457 -7.6777677 -3.03911638 0 0 Z " fill="#FDF4F4" transform="translate(50,175)"/>
<path d="M0 0 C8.91 0 17.82 0 27 0 C27 1.98 27 3.96 27 6 C21.72 6 16.44 6 11 6 C11 7.32 11 8.64 11 10 C15.95 10 20.9 10 26 10 C26 11.65 26 13.3 26 15 C21.05 15 16.1 15 11 15 C11 16.98 11 18.96 11 21 C16.94 21 22.88 21 29 21 C29 22.65 29 24.3 29 26 C19.43 26 9.86 26 0 26 C0 17.42 0 8.84 0 0 Z " fill="#FEFAFA" transform="translate(204,174)"/>
<path d="M0 0 C2.64 0 5.28 0 8 0 C9.49821059 3.37097383 10 5.20442119 10 9 C10.66 9 11.32 9 12 9 C12.12375 8.071875 12.2475 7.14375 12.375 6.1875 C13 3 13 3 15 0 C17.31 0 19.62 0 22 0 C22 4.95 22 9.9 22 15 C20.35 15 18.7 15 17 15 C16.67 13.02 16.34 11.04 16 9 C15.01 10.98 14.02 12.96 13 15 C11.68 15 10.36 15 9 15 C8.01 12.69 7.02 10.38 6 8 C5.67 10.31 5.34 12.62 5 15 C3.35 15 1.7 15 0 15 C0 10.05 0 5.1 0 0 Z " fill="#FBEBEA" transform="translate(221,207)"/>
<path d="M0 0 C12.24185013 -0.40357748 12.24185013 -0.40357748 17 3 C18 4 18 4 18.375 6.75 C18 10 18 10 16.3125 12.875 C11.02726848 16.26552588 6.18974771 15.31261352 0 15 C0 10.05 0 5.1 0 0 Z " fill="#FCEFEF" transform="translate(133,207)"/>
<path d="M0 0 C1.4282618 0.00031703 2.85654759 0.01163717 4.28466797 0.03173828 C5.41242142 0.03598312 5.41242142 0.03598312 6.56295776 0.04031372 C8.96775125 0.05152204 11.37217428 0.07662726 13.77685547 0.10205078 C15.40575635 0.11207976 17.03466305 0.12120576 18.66357422 0.12939453 C22.65981103 0.15146343 26.65577041 0.18599728 30.65185547 0.22705078 C31.03404314 1.88319735 31.36580649 3.55162102 31.65185547 5.22705078 C30.65185547 6.22705078 30.65185547 6.22705078 27.32543945 6.34057617 C25.8495999 6.34041707 24.37375478 6.33472392 22.89794922 6.32470703 C22.12250259 6.32329208 21.34705597 6.32187714 20.54811096 6.32041931 C18.06182053 6.31480423 15.57561887 6.30224925 13.08935547 6.28955078 C11.40771614 6.28453772 9.72607541 6.27997448 8.04443359 6.27587891 C3.91353981 6.26482991 -0.21728729 6.24755523 -4.34814453 6.22705078 C-4.97314453 4.35205078 -4.97314453 4.35205078 -5.34814453 2.22705078 C-3.34814453 0.22705078 -3.34814453 0.22705078 0 0 Z " fill="#EBF7FC" transform="translate(336.34814453125,183.77294921875)"/>
<path d="M0 0 C2.248125 -0.04125 4.49625 -0.0825 6.8125 -0.125 C8.07707031 -0.14820313 9.34164063 -0.17140625 10.64453125 -0.1953125 C14 0 14 0 17 2 C17.37918457 4.8818027 17.27444366 6.49685329 15.875 9.0625 C15.58625 9.701875 15.2975 10.34125 15 11 C15.78309467 13.23470405 15.78309467 13.23470405 17 15 C14.6875 15.25 14.6875 15.25 12 15 C10.95374591 13.70264493 9.95298777 12.36733028 9 11 C6.90584196 10.20376178 6.90584196 10.20376178 5 10 C5 11.65 5 13.3 5 15 C3.35 15 1.7 15 0 15 C0 10.05 0 5.1 0 0 Z " fill="#FAE4E3" transform="translate(266,207)"/>
<path d="M0 0 C2.0625 -0.061875 4.125 -0.12375 6.25 -0.1875 C7.99023438 -0.23970703 7.99023438 -0.23970703 9.765625 -0.29296875 C13.22268407 0.02017066 14.51565563 0.65709108 17 3 C16.25 7.75 16.25 7.75 14 10 C14.99 11.65 15.98 13.3 17 15 C14.1875 15.25 14.1875 15.25 11 15 C9.3125 13.0625 9.3125 13.0625 8 11 C7.01 10.67 6.02 10.34 5 10 C5 11.65 5 13.3 5 15 C3.35 15 1.7 15 0 15 C0 10.05 0 5.1 0 0 Z " fill="#FBEAEA" transform="translate(154,207)"/>
<path d="M0 0 C0.33 0 0.66 0 1 0 C1.33 1.65 1.66 3.3 2 5 C2.99 4.67 3.98 4.34 5 4 C5.45375 4.61875 5.9075 5.2375 6.375 5.875 C10.2126666 8.98168248 14.2167044 9.25560423 19 10 C20.66807519 10.32621165 22.33519126 10.65750804 24 11 C23.67 12.32 23.34 13.64 23 15 C14.77091633 15.48406375 14.77091633 15.48406375 11.3125 13.3125 C10.549375 12.879375 9.78625 12.44625 9 12 C5.69871355 13.1915405 5.69871355 13.1915405 3 15 C3.33 15.99 3.66 16.98 4 18 C3.34 18.99 2.68 19.98 2 21 C-0.8203125 21.29296875 -0.8203125 21.29296875 -4.125 21.1875 C-5.22070312 21.16042969 -6.31640625 21.13335937 -7.4453125 21.10546875 C-8.70988281 21.05326172 -8.70988281 21.05326172 -10 21 C-10 20.67 -10 20.34 -10 20 C-6.37 20 -2.74 20 1 20 C0.4946875 19.37351563 -0.010625 18.74703125 -0.53125 18.1015625 C-1.1809375 17.28429687 -1.830625 16.46703125 -2.5 15.625 C-3.1496875 14.81289062 -3.799375 14.00078125 -4.46875 13.1640625 C-6 11 -6 11 -6 9 C-4.7934375 8.38125 -4.7934375 8.38125 -3.5625 7.75 C-0.67500908 6.19196489 -0.67500908 6.19196489 -0.1875 2.8125 C-0.0946875 1.4203125 -0.0946875 1.4203125 0 0 Z " fill="#E44842" transform="translate(267,180)"/>
<path d="M0 0 C0.99 0.66 1.98 1.32 3 2 C3 2.66 3 3.32 3 4 C1.82630859 3.98259766 1.82630859 3.98259766 0.62890625 3.96484375 C-0.38300781 3.95582031 -1.39492187 3.94679687 -2.4375 3.9375 C-3.95150391 3.92009766 -3.95150391 3.92009766 -5.49609375 3.90234375 C-7.94021067 3.71387324 -7.94021067 3.71387324 -9 5 C-9.16666667 7.5 -9.16666667 7.5 -9 10 C-7.87465895 11.35618499 -7.87465895 11.35618499 -4.9375 11.0625 C-3.968125 11.041875 -2.99875 11.02125 -2 11 C-2.99 10.67 -3.98 10.34 -5 10 C-5 9.01 -5 8.02 -5 7 C-2.03 7 0.94 7 4 7 C4 9.64 4 12.28 4 15 C1.58145554 15.13536629 -0.82949783 15.23420279 -3.25 15.3125 C-4.27287109 15.3753418 -4.27287109 15.3753418 -5.31640625 15.43945312 C-9.1190051 15.53174921 -10.65020248 15.33250291 -13.44921875 12.671875 C-15.34920959 9.39833915 -15.71257674 7.72123408 -15 4 C-11.09805644 -0.94246184 -5.84639784 -0.8521868 0 0 Z " fill="#FBECEB" transform="translate(208,207)"/>
<path d="M0 0 C1.98 0 3.96 0 6 0 C7.00460531 2.12282669 8.00355602 4.24833021 9 6.375 C9.556875 7.55835938 10.11375 8.74171875 10.6875 9.9609375 C12 13 12 13 12 15 C10.35 15 8.7 15 7 15 C7 14.34 7 13.68 7 13 C5.700625 13.144375 4.40125 13.28875 3.0625 13.4375 C2.33160156 13.51871094 1.60070312 13.59992188 0.84765625 13.68359375 C-1.01140229 13.81886614 -1.01140229 13.81886614 -2 15 C-3.66617115 15.04063832 -5.33388095 15.042721 -7 15 C-5.45454854 9.52067211 -2.84456788 4.88570819 0 0 Z " fill="#F9DDDC" transform="translate(252,207)"/>
<path d="M0 0 C0.99 0.66 1.98 1.32 3 2 C3.3984375 4.05859375 3.3984375 4.05859375 3.375 6.4375 C3.38273437 7.21996094 3.39046875 8.00242188 3.3984375 8.80859375 C2.90522008 11.52128958 2.227813 12.40222461 0 14 C-3.45936747 14.71140218 -6.83009169 14.58495415 -10 13 C-11.63102777 9.73794446 -11.51981506 6.56444611 -11 3 C-8.92204961 -1.15590077 -4.10731106 -0.63762692 0 0 Z " fill="#E1312B" transform="translate(115,180)"/>
<path d="M0 0 C1.65 0 3.3 0 5 0 C5.33 3.63 5.66 7.26 6 11 C8.97 11.495 8.97 11.495 12 12 C12 8.04 12 4.08 12 0 C13.65 0 15.3 0 17 0 C17.08107583 1.93681161 17.13922475 3.8745934 17.1875 5.8125 C17.23970703 7.43091797 17.23970703 7.43091797 17.29296875 9.08203125 C17 12 17 12 15.83203125 13.86328125 C13.31081267 15.42761943 11.45080569 15.39879682 8.5 15.375 C7.5409375 15.38273438 6.581875 15.39046875 5.59375 15.3984375 C3 15 3 15 1.16796875 13.86328125 C-0.534345 11.14754995 -0.28975919 8.98253491 -0.1875 5.8125 C-0.16042969 4.72582031 -0.13335937 3.63914063 -0.10546875 2.51953125 C-0.07066406 1.68808594 -0.03585938 0.85664063 0 0 Z " fill="#FBEAE9" transform="translate(173,207)"/>
<path d="M0 0 C5.61 0 11.22 0 17 0 C17 0.99 17 1.98 17 3 C15.02 3 13.04 3 11 3 C11 6.96 11 10.92 11 15 C9.35 15 7.7 15 6 15 C6 11.04 6 7.08 6 3 C4.02 3 2.04 3 0 3 C0 2.01 0 1.02 0 0 Z " fill="#FCF1F1" transform="translate(284,207)"/>
<path d="M0 0 C3.63 0 7.26 0 11 0 C11 0.33 11 0.66 11 1 C9.02 1 7.04 1 5 1 C5 2.98 5 4.96 5 7 C6.32 7.33 7.64 7.66 9 8 C7.68 8 6.36 8 5 8 C5 9.98 5 11.96 5 14 C3.35 14 1.7 14 0 14 C0 9.38 0 4.76 0 0 Z " fill="#FDF5F5" transform="translate(154,208)"/>
<path d="M0 0 C2.6015625 0.0234375 2.6015625 0.0234375 5.625 0.375 C6.62789062 0.48585937 7.63078125 0.59671875 8.6640625 0.7109375 C9.82035156 0.85402344 9.82035156 0.85402344 11 1 C11.33 1.99 11.66 2.98 12 4 C9.03 4 6.06 4 3 4 C3 4.99 3 5.98 3 7 C4.32 7.33 5.64 7.66 7 8 C6 9 6 9 3.0625 9.1875 C0 9 0 9 -2 7 C-2.25 4.5 -2.25 4.5 -2 2 C-1.34 1.34 -0.68 0.68 0 0 Z " fill="#E13630" transform="translate(200,210)"/>
<path d="M0 0 C2.875 -0.125 2.875 -0.125 6 0 C8 2 8 2 8.25 4.5 C8 7 8 7 6 9 C2.875 9.125 2.875 9.125 0 9 C0 6.03 0 3.06 0 0 Z " fill="#E3433E" transform="translate(138,210)"/>
<path d="M0 0 C3.3 0 6.6 0 10 0 C10 0.33 10 0.66 10 1 C8.02 1 6.04 1 4 1 C4 2.98 4 4.96 4 7 C5.32 7.33 6.64 7.66 8 8 C6.68 8 5.36 8 4 8 C4 9.98 4 11.96 4 14 C2.68 14 1.36 14 0 14 C0 9.38 0 4.76 0 0 Z " fill="#FEFCFC" transform="translate(267,208)"/>
<path d="M0 0 C4.62 0 9.24 0 14 0 C13.67 2.31 13.34 4.62 13 7 C11.296875 7.7109375 11.296875 7.7109375 9 8 C6.640625 6.6015625 6.640625 6.6015625 4.25 4.625 C3.45078125 3.97789062 2.6515625 3.33078125 1.828125 2.6640625 C1.22484375 2.11492187 0.6215625 1.56578125 0 1 C0 0.67 0 0.34 0 0 Z " fill="#48BCEA" transform="translate(343,198)"/>
<path d="M0 0 C3.3 0 6.6 0 10 0 C10.33 1.65 10.66 3.3 11 5 C8.59454362 6.20272819 7.05003047 6.10071472 4.375 6.0625 C3.14910156 6.04896484 3.14910156 6.04896484 1.8984375 6.03515625 C0.95871094 6.01775391 0.95871094 6.01775391 0 6 C0 4.02 0 2.04 0 0 Z " fill="#E13833" transform="translate(144,180)"/>
<path d="M0 0 C1.0828125 0.37125 1.0828125 0.37125 2.1875 0.75 C1.85535849 3.84998746 1.1329988 4.8045012 -1.125 7.0625 C-3.8125 8.75 -3.8125 8.75 -6.125 8.5 C-6.681875 8.2525 -7.23875 8.005 -7.8125 7.75 C-7.8125 3.75 -7.8125 3.75 -5.625 1.4375 C-2.8125 -0.25 -2.8125 -0.25 0 0 Z " fill="#ECF7FC" transform="translate(363.8125,174.25)"/>
<path d="M0 0 C2.97 0 5.94 0 9 0 C9.38218767 1.65614657 9.71395102 3.32457024 10 5 C9 6 9 6 6.93359375 6.09765625 C6.10988281 6.08605469 5.28617188 6.07445312 4.4375 6.0625 C3.61121094 6.05347656 2.78492188 6.04445312 1.93359375 6.03515625 C1.29550781 6.02355469 0.65742188 6.01195312 0 6 C0 4.02 0 2.04 0 0 Z " fill="#E1322C" transform="translate(180,180)"/>
<path d="M0 0 C2.97 0 5.94 0 9 0 C9.33 1.32 9.66 2.64 10 4 C8 6 8 6 6.0546875 6.1953125 C4.03645833 6.13020833 2.01822917 6.06510417 0 6 C0 4.02 0 2.04 0 0 Z " fill="#E23F39" transform="translate(247,180)"/>
<path d="M0 0 C1.6045556 0.14148989 3.20863767 0.28835686 4.8125 0.4375 C5.70582031 0.51871094 6.59914063 0.59992188 7.51953125 0.68359375 C10 1 10 1 13 2 C12.67 3.32 12.34 4.64 12 6 C7.45194365 6.17835515 4.1205746 5.99785435 0 4 C0 2.66666667 0 1.33333333 0 0 Z " fill="#E44E48" transform="translate(29,189)"/>
<path d="M0 0 C1.58246707 -0.08153933 3.16616273 -0.13943557 4.75 -0.1875 C6.07257813 -0.23970703 6.07257813 -0.23970703 7.421875 -0.29296875 C10.48475196 0.05508545 11.76522683 0.92125829 14 3 C14.33 3.66 14.66 4.32 15 5 C9.72684667 4.5547115 4.98229776 3.91626837 0 2 C0 1.34 0 0.68 0 0 Z " fill="#E2413B" transform="translate(282,180)"/>
<path d="M0 0 C8.14556962 -0.46993671 8.14556962 -0.46993671 11.5 1.375 C13 3 13 3 14 5 C9.33333333 4.33333333 4.66666667 3.66666667 0 3 C0 2.01 0 1.02 0 0 Z " fill="#E23C37" transform="translate(34,180)"/>
<path d="M0 0 C1.25 6.625 1.25 6.625 -1 10 C-4.125 10.1875 -4.125 10.1875 -7 10 C-5.68 9.34 -4.36 8.68 -3 8 C-3.99 6.35 -4.98 4.7 -6 3 C-1.125 0 -1.125 0 0 0 Z " fill="#E23B35" transform="translate(173,213)"/>
<path d="M0 0 C0.33 0 0.66 0 1 0 C1 8.58 1 17.16 1 26 C0.67 26 0.34 26 0 26 C-0.33 23.69 -0.66 21.38 -1 19 C-1.99 19.33 -2.98 19.66 -4 20 C-3.67 18.68 -3.34 17.36 -3 16 C-2.01 16 -1.02 16 0 16 C0 10.72 0 5.44 0 0 Z " fill="#E23934" transform="translate(132,174)"/>
<path d="M0 0 C2.31 0 4.62 0 7 0 C7 1.32 7 2.64 7 4 C4.69 4 2.38 4 0 4 C0 2.68 0 1.36 0 0 Z " fill="#E44843" transform="translate(271,210)"/>
<path d="M0 0 C1.32 0 2.64 0 4 0 C4.33 1.32 4.66 2.64 5 4 C3.02 4.99 3.02 4.99 1 6 C0.34 5.34 -0.32 4.68 -1 4 C-0.625 1.875 -0.625 1.875 0 0 Z " fill="#EF9693" transform="translate(372,221)"/>
<path d="M0 0 C2.97 0 5.94 0 9 0 C9 0.99 9 1.98 9 3 C6.03 3 3.06 3 0 3 C0 2.01 0 1.02 0 0 Z " fill="#E0312B" transform="translate(282,191)"/>
<path d="M0 0 C1.98 0 3.96 0 6 0 C6 1.32 6 2.64 6 4 C4.02 4 2.04 4 0 4 C0 2.68 0 1.36 0 0 Z " fill="#E2403B" transform="translate(159,210)"/>
<path d="M0 0 C0.99 0.495 0.99 0.495 2 1 C2.73075648 3.3140622 3.40138258 5.64828869 4 8 C2.68 8 1.36 8 0 8 C0 5.36 0 2.72 0 0 Z " fill="#E34540" transform="translate(226,214)"/>
<path d="M0 0 C0.33 0.99 0.66 1.98 1 3 C-1.97 3 -4.94 3 -8 3 C-8 2.34 -8 1.68 -8 1 C-5.29120665 -0.35439668 -2.99066732 -0.06501451 0 0 Z " fill="#E5534E" transform="translate(211,211)"/>
</svg>
